<?xml version="1.0" encoding="utf-8"?>
<!-- Generator: Adobe Illustrator 26.0.1, SVG Export Plug-In . SVG Version: 6.00 Build 0)  -->
<svg version="1.1" id="Layer_1" xmlns="http://www.w3.org/2000/svg" xmlns:xlink="http://www.w3.org/1999/xlink" x="0px" y="0px"
	 viewBox="0 0 500 500" style="enable-background:new 0 0 500 500;" xml:space="preserve">
<style type="text/css">
	.st0{fill:#ECECEC;}
	.st1{fill:#F0F0F0;}
	.st2{fill:#F5F5F5;}
	.st3{fill:#FAFAFA;}
	.st4{fill:none;stroke:#E1E1E1;stroke-width:3;stroke-miterlimit:10;}
	.st5{fill:#E1E1E1;}
	.st6{fill:#E7E7E7;}
	.st7{fill:#1A2E35;}
	.st8{opacity:0.7;fill:#FFFFFF;}
	.st9{opacity:0.6;fill:#FFFFFF;}
	.st10{opacity:0.2;enable-background:new    ;}
	.st11{opacity:0.4;enable-background:new    ;}
	.st12{fill:#FFFFFF;}
	.st13{fill:#007CFF;}
	.st14{fill:#FF6666;}
	.st15{fill:none;stroke:#007CFF;stroke-width:2.9675;stroke-miterlimit:10;}
	.st16{opacity:0.3;}
	.st17{fill:#CC0033;}
	.st18{opacity:0.9;fill:#FFFFFF;}
	.st19{opacity:0.5;}
	.st20{opacity:0.2;fill:#FFFFFF;}
	.st21{fill:#FF3333;}
	.st22{opacity:0.3;fill:#FFFFFF;}
	.st23{opacity:0.5;fill:#FFFFFF;}
	.st24{fill:none;stroke:#007CFF;stroke-width:2.5967;stroke-miterlimit:10;}
	.st25{fill:none;stroke:#007CFF;stroke-width:3.895;stroke-linecap:round;stroke-linejoin:round;stroke-miterlimit:10;}
	.st26{opacity:0.8;fill:#FFFFFF;}
	.st27{opacity:0.4;fill:#FFFFFF;}
	.st28{fill:#FCC1BB;}
	.st29{fill:#F9C0BB;}
	.st30{fill:none;stroke:#417BFD;stroke-width:0.4831;stroke-linecap:round;stroke-linejoin:round;stroke-miterlimit:10;}
	.st31{fill:#263237;}
	.st32{opacity:0.4;fill:#FFFFFF;enable-background:new    ;}
	.st33{fill:#CC0000;}
	.st34{opacity:0.2;}
	.st35{fill:none;stroke:#FFFFFF;stroke-miterlimit:10;}
	.st36{opacity:0.5;fill:#FFFFFF;enable-background:new    ;}
	.st37{fill:none;stroke:#1A2E35;stroke-width:0.554;stroke-linecap:round;stroke-linejoin:round;stroke-miterlimit:10;}
	.st38{fill:#EB827E;}
</style>
<g>
	<rect x="-9.3" y="396.4" class="st0" width="518.5" height="0.3"/>
	<rect x="423" y="413.1" class="st0" width="34.3" height="0.3"/>
	<rect x="325.2" y="415.9" class="st0" width="9" height="0.3"/>
	<rect x="402" y="403.4" class="st0" width="19.9" height="0.3"/>
	<rect x="45.1" y="405.2" class="st0" width="44.8" height="0.3"/>
	<rect x="99.2" y="405.2" class="st0" width="6.6" height="0.3"/>
	<rect x="127.1" y="409.6" class="st0" width="97.1" height="0.3"/>
	<path class="st0" d="M236.5,350.1H36.3c-3.3,0-5.9-2.7-5.9-5.9V62.7c0-3.3,2.7-5.9,5.9-5.9h200.3c3.3,0,5.9,2.7,5.9,5.9v281.5
		C242.5,347.5,239.8,350.1,236.5,350.1z M36.3,57.1c-3.1,0-5.7,2.5-5.7,5.7v281.5c0,3.1,2.5,5.7,5.7,5.7h200.3
		c3.1,0,5.7-2.5,5.7-5.7V62.7c0-3.1-2.5-5.7-5.7-5.7H36.3z"/>
	<path class="st0" d="M460.8,350.1H260.6c-3.3,0-5.9-2.7-5.9-5.9V62.7c0-3.3,2.7-5.9,5.9-5.9h200.3c3.3,0,5.9,2.7,5.9,5.9v281.5
		C466.8,347.5,464.1,350.1,460.8,350.1z M260.6,57.1c-3.1,0-5.7,2.5-5.7,5.7v281.5c0,3.1,2.5,5.7,5.7,5.7h200.3
		c3.1,0,5.7-2.5,5.7-5.7V62.7c0-3.1-2.5-5.7-5.7-5.7H260.6z"/>
</g>
<g>
	<path class="st1" d="M236.6,187.6v18.2l9.4,0.9c1.3,6.1,3.7,11.8,7,16.8l-6,7.3l12.9,12.9l7.3-6c5,3.3,10.7,5.7,16.8,7l0.9,9.4H303
		l0.9-9.4c6.1-1.3,11.8-3.7,16.8-7l7.3,6l12.9-12.9l-6-7.3c3.3-5,5.7-10.7,7-16.8l9.4-0.9v-18.2l-9.4-0.9c-1.3-6.1-3.7-11.8-7-16.8
		l6-7.3L328,149.8l-7.3,6c-5-3.3-10.7-5.7-16.8-7l-0.9-9.4h-18.2l-0.9,9.4c-6.1,1.3-11.8,3.7-16.8,7l-7.3-6l-12.9,12.9l6,7.3
		c-3.3,5-5.7,10.7-7,16.8L236.6,187.6z M293.9,172.1c13.6,0,24.7,11,24.7,24.7c0,13.6-11,24.7-24.7,24.7s-24.7-11-24.7-24.7
		C269.2,183.1,280.3,172.1,293.9,172.1z"/>
	<path class="st2" d="M205.8,269.1l5.2,4.3l9.3-9.3l-4.3-5.2c2.4-3.6,4.1-7.7,5-12.1l6.7-0.6v-13.1l-6.7-0.6
		c-0.9-4.4-2.6-8.5-5-12.1l4.3-5.2L211,206l-5.2,4.3c-3.6-2.4-7.7-4.1-12.1-5l-0.6-6.7l-13.1,0l-0.6,6.7c-4.4,0.9-8.5,2.7-12.1,5
		L162,206l-9.3,9.3l4.3,5.2c-2.4,3.6-4.1,7.7-5,12.1l-6.7,0.6v13.1l6.7,0.6c0.9,4.4,2.6,8.5,5,12.1l-4.3,5.2l9.3,9.3l5.2-4.3
		c3.6,2.4,7.7,4.1,12.1,5l0.6,6.7h13.1l0.6-6.7C198.1,273.3,202.2,271.5,205.8,269.1z M168.8,239.7c0-9.8,7.9-17.7,17.7-17.7
		c9.8,0,17.7,7.9,17.7,17.7c0,9.8-7.9,17.7-17.7,17.7C176.7,257.4,168.8,249.5,168.8,239.7z"/>
	<path class="st3" d="M264,357.8c5.2-1.1,10.1-3.2,14.4-6l6.2,5.2l11-11l-5.2-6.2c2.8-4.3,4.9-9.2,6-14.4l8-0.8V309l-8-0.8
		c-1.1-5.2-3.2-10.1-6-14.4l5.2-6.2l-11-11l-6.2,5.2c-4.3-2.8-9.2-4.9-14.4-6l-0.8-8h-15.6l-0.8,8c-5.2,1.1-10.1,3.2-14.4,6
		l-6.2-5.2l-11,11l5.2,6.2c-2.8,4.3-4.9,9.2-6,14.4l-8,0.8v15.6l8,0.8c1.1,5.2,3.2,10.1,6,14.4l-5.2,6.2l11,11l6.2-5.2
		c4.3,2.8,9.2,4.9,14.4,6l0.8,8h15.6L264,357.8z M234.3,316.8c0-11.6,9.4-21.1,21.1-21.1c11.7,0,21.1,9.4,21.1,21.1
		c0,11.7-9.4,21.1-21.1,21.1C243.8,337.9,234.3,328.4,234.3,316.8z"/>
	<g>
		
			<rect x="86.2" y="165.8" transform="matrix(0.9908 0.1354 -0.1354 0.9908 26.7289 -13.1926)" class="st2" width="48.2" height="48.2"/>
		<line class="st4" x1="96.5" y1="177.3" x2="127.6" y2="181.6"/>
		<line class="st4" x1="95.2" y1="187" x2="126.3" y2="191.3"/>
		<line class="st4" x1="93.9" y1="197" x2="112.2" y2="199.5"/>
	</g>
	<g>
		
			<rect x="356.5" y="116.3" transform="matrix(1 -3.577382e-03 3.577382e-03 1 -0.4997 1.3623)" class="st1" width="48.2" height="48.2"/>
		<line class="st4" x1="365.2" y1="129.9" x2="396.5" y2="129.8"/>
		<line class="st4" x1="365.2" y1="139.7" x2="396.6" y2="139.6"/>
		<line class="st4" x1="365.3" y1="149.8" x2="383.7" y2="149.7"/>
	</g>
	<g>
		
			<rect x="388.5" y="236.5" transform="matrix(0.9921 -0.1257 0.1257 0.9921 -29.4809 53.9315)" class="st2" width="48.2" height="48.2"/>
		<line class="st4" x1="396.1" y1="252.1" x2="427.2" y2="248.1"/>
		<line class="st4" x1="397.3" y1="261.8" x2="428.4" y2="257.8"/>
		<line class="st4" x1="398.6" y1="271.8" x2="416.9" y2="269.4"/>
	</g>
	<g>
		
			<rect x="129.3" y="311.3" transform="matrix(1 -3.577382e-03 3.577382e-03 1 -1.1987 0.5508)" class="st1" width="48.2" height="48.2"/>
		<line class="st4" x1="138" y1="324.9" x2="169.3" y2="324.8"/>
		<line class="st4" x1="138" y1="334.7" x2="169.4" y2="334.5"/>
		<line class="st4" x1="138.1" y1="344.7" x2="156.5" y2="344.7"/>
	</g>
	<g>
		
			<rect x="341.9" y="334.8" transform="matrix(1 -3.577375e-03 3.577375e-03 1 -1.2815 1.3117)" class="st1" width="48.2" height="48.2"/>
		<line class="st4" x1="350.7" y1="348.4" x2="382" y2="348.3"/>
		<line class="st4" x1="350.7" y1="358.2" x2="382" y2="358.1"/>
		<line class="st4" x1="350.7" y1="368.3" x2="369.2" y2="368.2"/>
	</g>
	<g>
		
			<rect x="144.7" y="117.7" transform="matrix(0.9762 -0.2168 0.2168 0.9762 -26.7305 39.9712)" class="st1" width="48.2" height="48.2"/>
		<line class="st4" x1="151.5" y1="134.9" x2="182.2" y2="128.1"/>
		<line class="st4" x1="153.7" y1="144.4" x2="184.3" y2="137.6"/>
		<line class="st4" x1="155.9" y1="154.3" x2="173.9" y2="150.3"/>
	</g>
	<g>
		<polygon class="st5" points="93.7,167.9 92.8,167.9 91.6,162.4 94.8,162.4 		"/>
		<ellipse class="st6" cx="93.2" cy="163.1" rx="4.4" ry="3.4"/>
	</g>
	<g>
		<polygon class="st5" points="181.6,119.9 180.8,119.9 179.6,114.4 182.8,114.4 		"/>
		<ellipse class="st6" cx="181.2" cy="115.1" rx="4.4" ry="3.4"/>
	</g>
	<g>
		<polygon class="st5" points="379.8,121.3 378.9,121.3 377.7,115.8 381,115.8 		"/>
		<ellipse class="st6" cx="379.3" cy="116.5" rx="4.4" ry="3.4"/>
	</g>
	<g>
		<polygon class="st5" points="429,240.6 428.1,240.6 427,235.1 430.2,235.1 		"/>
		<ellipse class="st6" cx="428.6" cy="235.8" rx="4.4" ry="3.4"/>
	</g>
	<g>
		<polygon class="st5" points="366.8,340.2 365.9,340.2 364.7,334.7 367.9,334.7 		"/>
		<ellipse class="st6" cx="366.3" cy="335.4" rx="4.4" ry="3.4"/>
	</g>
	<g>
		<polygon class="st5" points="152,315.6 151.1,315.6 149.9,310.1 153.2,310.1 		"/>
		<ellipse class="st6" cx="151.5" cy="310.7" rx="4.4" ry="3.4"/>
	</g>
</g>
<ellipse id="_x3C_Path_x3E__359_" class="st2" cx="250" cy="431.5" rx="201.1" ry="11.7"/>
<g>
	<g>
		<path class="st7" d="M139.7,257.9c0-6.8,4.5-12.4,10-12.4c5.5,0,10,5.6,10,12.4c0,6.8-4.5,12.4-10,12.4
			C144.2,270.3,139.7,264.7,139.7,257.9z M141.8,257.9c0,5.7,3.6,10.3,7.9,10.3c4.4,0,7.9-4.6,7.9-10.3c0-5.7-3.6-10.3-7.9-10.3
			C145.4,247.6,141.8,252.2,141.8,257.9z"/>
	</g>
	<g>
		<path class="st7" d="M120,257.9c0-6.8,4.5-12.4,10-12.4c5.5,0,10,5.6,10,12.4c0,6.8-4.5,12.4-10,12.4
			C124.5,270.3,120,264.7,120,257.9z M122.1,257.9c0,5.7,3.6,10.3,7.9,10.3c4.4,0,7.9-4.6,7.9-10.3c0-5.7-3.6-10.3-7.9-10.3
			C125.7,247.6,122.1,252.2,122.1,257.9z"/>
	</g>
	<g>
		<path class="st7" d="M100.3,257.9c0-6.8,4.5-12.4,10-12.4c5.5,0,10,5.6,10,12.4c0,6.8-4.5,12.4-10,12.4
			C104.8,270.3,100.3,264.7,100.3,257.9z M102.4,257.9c0,5.7,3.6,10.3,7.9,10.3c4.4,0,7.9-4.6,7.9-10.3c0-5.7-3.6-10.3-7.9-10.3
			C105.9,247.6,102.4,252.2,102.4,257.9z"/>
	</g>
	<g>
		<path class="st7" d="M80.6,257.9c0-6.8,4.5-12.4,10-12.4c5.5,0,10,5.6,10,12.4c0,6.8-4.5,12.4-10,12.4
			C85.1,270.3,80.6,264.7,80.6,257.9z M82.7,257.9c0,5.7,3.6,10.3,7.9,10.3s7.9-4.6,7.9-10.3c0-5.7-3.6-10.3-7.9-10.3
			S82.7,252.2,82.7,257.9z"/>
	</g>
	<g>
		<path class="st7" d="M159.4,257.9c0-6.8,4.5-12.4,10-12.4c5.5,0,10,5.6,10,12.4c0,6.8-4.5,12.4-10,12.4
			C163.9,270.3,159.4,264.7,159.4,257.9z M161.5,257.9c0,5.7,3.6,10.3,7.9,10.3c4.4,0,7.9-4.6,7.9-10.3c0-5.7-3.6-10.3-7.9-10.3
			C165.1,247.6,161.5,252.2,161.5,257.9z"/>
	</g>
	
		<rect x="67.5" y="258.1" transform="matrix(-1 -1.224647e-16 1.224647e-16 -1 258.5611 687.0231)" class="st7" width="123.5" height="170.8"/>
	
		<rect x="67.5" y="258.1" transform="matrix(-1 -1.224647e-16 1.224647e-16 -1 258.5611 687.0231)" class="st8" width="123.5" height="170.8"/>
	
		<rect x="78.7" y="258.1" transform="matrix(-1 -1.224647e-16 1.224647e-16 -1 269.698 687.0231)" class="st9" width="112.4" height="170.8"/>
	<polygon class="st10" points="71.2,428.9 70.7,269.3 70.2,428.9 	"/>
	<polygon class="st10" points="76.4,428.9 75.9,279.2 75.4,428.9 	"/>
	<polygon class="st10" points="72.8,258.2 73.3,378.2 73.8,258.2 	"/>
	<g>
		<path class="st7" d="M172.4,266.2c0,1.9,1.3,3.5,2.9,3.5c1.6,0,2.9-1.6,2.9-3.5c0-1.9-1.3-3.5-2.9-3.5
			C173.7,262.7,172.4,264.3,172.4,266.2z"/>
		<g>
			<path class="st7" d="M175.5,267.3c0.3,0,0.6-0.1,0.8-0.4c2-2.3,3.2-5.6,3.2-9c0-6.8-4.5-12.4-10-12.4c-4.1,0-7.7,3-9.3,7.6
				c-0.2,0.5,0.1,1.1,0.7,1.3c0.5,0.2,1.1-0.1,1.3-0.7c1.3-3.8,4.1-6.2,7.3-6.2c4.4,0,7.9,4.6,7.9,10.3c0,2.9-1,5.7-2.7,7.7
				c-0.4,0.4-0.3,1.1,0.1,1.5C175.1,267.2,175.3,267.3,175.5,267.3z"/>
		</g>
		<g class="st11">
			<path class="st12" d="M175.5,267.3c0.3,0,0.6-0.1,0.8-0.4c2-2.3,3.2-5.6,3.2-9c0-6.8-4.5-12.4-10-12.4c-4.1,0-7.7,3-9.3,7.6
				c-0.2,0.5,0.1,1.1,0.7,1.3c0.5,0.2,1.1-0.1,1.3-0.7c1.3-3.8,4.1-6.2,7.3-6.2c4.4,0,7.9,4.6,7.9,10.3c0,2.9-1,5.7-2.7,7.7
				c-0.4,0.4-0.3,1.1,0.1,1.5C175.1,267.2,175.3,267.3,175.5,267.3z"/>
		</g>
	</g>
	<g>
		<path class="st7" d="M152.7,266.2c0,1.9,1.3,3.5,2.9,3.5c1.6,0,2.9-1.6,2.9-3.5c0-1.9-1.3-3.5-2.9-3.5
			C154,262.7,152.7,264.3,152.7,266.2z"/>
		<g>
			<path class="st7" d="M155.8,267.3c0.3,0,0.6-0.1,0.8-0.4c2-2.3,3.2-5.6,3.2-9c0-6.8-4.5-12.4-10-12.4c-4.1,0-7.7,3-9.3,7.6
				c-0.2,0.5,0.1,1.1,0.7,1.3c0.5,0.2,1.1-0.1,1.3-0.7c1.3-3.8,4.1-6.2,7.3-6.2c4.4,0,7.9,4.6,7.9,10.3c0,2.9-1,5.7-2.7,7.7
				c-0.4,0.4-0.3,1.1,0.1,1.5C155.3,267.2,155.6,267.3,155.8,267.3z"/>
		</g>
		<g class="st11">
			<path class="st12" d="M155.8,267.3c0.3,0,0.6-0.1,0.8-0.4c2-2.3,3.2-5.6,3.2-9c0-6.8-4.5-12.4-10-12.4c-4.1,0-7.7,3-9.3,7.6
				c-0.2,0.5,0.1,1.1,0.7,1.3c0.5,0.2,1.1-0.1,1.3-0.7c1.3-3.8,4.1-6.2,7.3-6.2c4.4,0,7.9,4.6,7.9,10.3c0,2.9-1,5.7-2.7,7.7
				c-0.4,0.4-0.3,1.1,0.1,1.5C155.3,267.2,155.6,267.3,155.8,267.3z"/>
		</g>
	</g>
	<g>
		<path class="st7" d="M133,266.2c0,1.9,1.3,3.5,2.9,3.5s2.9-1.6,2.9-3.5c0-1.9-1.3-3.5-2.9-3.5S133,264.3,133,266.2z"/>
		<g>
			<path class="st7" d="M136.1,267.3c0.3,0,0.6-0.1,0.8-0.4c2-2.3,3.2-5.6,3.2-9c0-6.8-4.5-12.4-10-12.4c-4.1,0-7.7,3-9.3,7.6
				c-0.2,0.5,0.1,1.1,0.7,1.3c0.5,0.2,1.1-0.1,1.3-0.7c1.3-3.8,4.1-6.2,7.3-6.2c4.4,0,7.9,4.6,7.9,10.3c0,2.9-1,5.7-2.7,7.7
				c-0.4,0.4-0.3,1.1,0.1,1.5C135.6,267.2,135.9,267.3,136.1,267.3z"/>
		</g>
		<g class="st11">
			<path class="st12" d="M136.1,267.3c0.3,0,0.6-0.1,0.8-0.4c2-2.3,3.2-5.6,3.2-9c0-6.8-4.5-12.4-10-12.4c-4.1,0-7.7,3-9.3,7.6
				c-0.2,0.5,0.1,1.1,0.7,1.3c0.5,0.2,1.1-0.1,1.3-0.7c1.3-3.8,4.1-6.2,7.3-6.2c4.4,0,7.9,4.6,7.9,10.3c0,2.9-1,5.7-2.7,7.7
				c-0.4,0.4-0.3,1.1,0.1,1.5C135.6,267.2,135.9,267.3,136.1,267.3z"/>
		</g>
	</g>
	<g>
		<path class="st7" d="M113.3,266.2c0,1.9,1.3,3.5,2.9,3.5c1.6,0,2.9-1.6,2.9-3.5c0-1.9-1.3-3.5-2.9-3.5
			C114.6,262.7,113.3,264.3,113.3,266.2z"/>
		<g>
			<path class="st7" d="M116.4,267.3c0.3,0,0.6-0.1,0.8-0.4c2-2.3,3.2-5.6,3.2-9c0-6.8-4.5-12.4-10-12.4c-4.1,0-7.7,3-9.3,7.6
				c-0.2,0.5,0.1,1.1,0.7,1.3c0.5,0.2,1.1-0.1,1.3-0.7c1.3-3.8,4.1-6.2,7.3-6.2c4.4,0,7.9,4.6,7.9,10.3c0,2.9-1,5.7-2.7,7.7
				c-0.4,0.4-0.3,1.1,0.1,1.5C115.9,267.2,116.1,267.3,116.4,267.3z"/>
		</g>
		<g class="st11">
			<path class="st12" d="M116.4,267.3c0.3,0,0.6-0.1,0.8-0.4c2-2.3,3.2-5.6,3.2-9c0-6.8-4.5-12.4-10-12.4c-4.1,0-7.7,3-9.3,7.6
				c-0.2,0.5,0.1,1.1,0.7,1.3c0.5,0.2,1.1-0.1,1.3-0.7c1.3-3.8,4.1-6.2,7.3-6.2c4.4,0,7.9,4.6,7.9,10.3c0,2.9-1,5.7-2.7,7.7
				c-0.4,0.4-0.3,1.1,0.1,1.5C115.9,267.2,116.1,267.3,116.4,267.3z"/>
		</g>
	</g>
	<g>
		<path class="st7" d="M93.6,266.2c0,1.9,1.3,3.5,2.9,3.5c1.6,0,2.9-1.6,2.9-3.5c0-1.9-1.3-3.5-2.9-3.5
			C94.9,262.7,93.6,264.3,93.6,266.2z"/>
		<g>
			<path class="st7" d="M96.7,267.3c0.3,0,0.6-0.1,0.8-0.4c2-2.3,3.2-5.6,3.2-9c0-6.8-4.5-12.4-10-12.4c-4.1,0-7.7,3-9.3,7.6
				c-0.2,0.5,0.1,1.1,0.7,1.3c0.5,0.2,1.1-0.1,1.3-0.7c1.3-3.8,4.1-6.2,7.3-6.2c4.4,0,7.9,4.6,7.9,10.3c0,2.9-1,5.7-2.7,7.7
				c-0.4,0.4-0.3,1.1,0.1,1.5C96.2,267.2,96.4,267.3,96.7,267.3z"/>
		</g>
		<g class="st11">
			<path class="st12" d="M96.7,267.3c0.3,0,0.6-0.1,0.8-0.4c2-2.3,3.2-5.6,3.2-9c0-6.8-4.5-12.4-10-12.4c-4.1,0-7.7,3-9.3,7.6
				c-0.2,0.5,0.1,1.1,0.7,1.3c0.5,0.2,1.1-0.1,1.3-0.7c1.3-3.8,4.1-6.2,7.3-6.2c4.4,0,7.9,4.6,7.9,10.3c0,2.9-1,5.7-2.7,7.7
				c-0.4,0.4-0.3,1.1,0.1,1.5C96.2,267.2,96.4,267.3,96.7,267.3z"/>
		</g>
	</g>
	<g>
		<rect x="102.4" y="336.7" class="st13" width="8.7" height="14.8"/>
		<rect x="116.5" y="325.9" class="st13" width="8.7" height="25.6"/>
		<rect x="130.6" y="330" class="st13" width="8.7" height="21.6"/>
		<rect x="144.7" y="319.2" class="st13" width="8.7" height="32.3"/>
		<rect x="158.7" y="308.4" class="st13" width="8.7" height="43.1"/>
		<rect x="102.4" y="336.7" class="st14" width="8.7" height="14.8"/>
		<rect x="116.5" y="325.9" class="st14" width="8.7" height="25.6"/>
		<rect x="130.6" y="330" class="st14" width="8.7" height="21.6"/>
		<rect x="144.7" y="319.2" class="st14" width="8.7" height="32.3"/>
		<rect x="158.7" y="308.4" class="st14" width="8.7" height="43.1"/>
		<rect x="90.5" y="349.5" class="st7" width="88.5" height="4.1"/>
		<polyline class="st15" points="93.3,338.5 120.9,316.6 134.9,324.8 173.7,291.7 		"/>
		<polygon class="st13" points="176,289.8 170.2,290.7 174.3,295 		"/>
	</g>
	<g class="st16">
		<path d="M140.7,366.9H90.6c-0.6,0-1-0.5-1-1c0-0.6,0.5-1,1-1h50.1c0.6,0,1,0.5,1,1C141.7,366.4,141.3,366.9,140.7,366.9z"/>
	</g>
	<g class="st16">
		<g>
			<path d="M179.4,376.2H97.7c-0.6,0-1-0.5-1-1c0-0.6,0.5-1,1-1h81.6c0.6,0,1,0.5,1,1C180.4,375.7,180,376.2,179.4,376.2z"/>
		</g>
		<g>
			<path d="M179.5,381.4H90.6c-0.6,0-1-0.5-1-1c0-0.6,0.5-1,1-1h88.9c0.6,0,1,0.5,1,1C180.5,380.9,180.1,381.4,179.5,381.4z"/>
		</g>
		<g>
			<path d="M179.6,386.6H90.7c-0.6,0-1-0.5-1-1s0.5-1,1-1h88.9c0.6,0,1,0.5,1,1S180.2,386.6,179.6,386.6z"/>
		</g>
		<g>
			<path d="M165.2,391.8H90.8c-0.6,0-1-0.5-1-1c0-0.6,0.5-1,1-1h74.4c0.6,0,1,0.5,1,1C166.2,391.3,165.8,391.8,165.2,391.8z"/>
		</g>
	</g>
	<g class="st16">
		<g>
			<path d="M179.4,401.1H97.7c-0.6,0-1-0.5-1-1c0-0.6,0.5-1,1-1h81.6c0.6,0,1,0.5,1,1C180.4,400.6,180,401.1,179.4,401.1z"/>
		</g>
		<g>
			<path d="M179.5,406.3H90.6c-0.6,0-1-0.5-1-1s0.5-1,1-1h88.9c0.6,0,1,0.5,1,1S180.1,406.3,179.5,406.3z"/>
		</g>
		<g>
			<path d="M179.6,411.5H90.7c-0.6,0-1-0.5-1-1c0-0.6,0.5-1,1-1h88.9c0.6,0,1,0.5,1,1C180.7,411,180.2,411.5,179.6,411.5z"/>
		</g>
		<g>
			<path d="M165.2,416.7H90.8c-0.6,0-1-0.5-1-1c0-0.6,0.5-1,1-1h74.4c0.6,0,1,0.5,1,1C166.2,416.2,165.8,416.7,165.2,416.7z"/>
		</g>
	</g>
	<g class="st16">
		<path d="M140.7,280.8H90.6c-0.6,0-1-0.5-1-1c0-0.6,0.5-1,1-1h50.1c0.6,0,1,0.5,1,1C141.7,280.3,141.3,280.8,140.7,280.8z"/>
	</g>
</g>
<g>
	<path class="st17" d="M416.5,381.3H297.2c-1.9,0-3.5-1.5-3.5-3.5v-197c0-1.9,1.5-3.5,3.5-3.5h119.3c1.9,0,3.5,1.5,3.5,3.5v197
		C420,379.7,418.4,381.3,416.5,381.3z"/>
	<path class="st7" d="M390.9,183.8h-68.1v-6.7c0-0.4,0.3-0.6,0.6-0.6h66.8c0.4,0,0.6,0.3,0.6,0.6V183.8z"/>
	<rect x="298.7" y="183.8" class="st18" width="116.3" height="191.1"/>
	<g>
		<g>
			<path class="st7" d="M379.6,192.6h-20.5l-0.2-0.7c-0.3-0.9-1.1-1.5-2.1-1.5c-1,0-1.8,0.6-2.1,1.5l-0.2,0.7h-20.5
				c-1.7,0-3-1.3-3-3V182c0-1.6,1.3-3,3-3h45.6c1.6,0,3,1.3,3,3v7.5C382.6,191.2,381.3,192.6,379.6,192.6z M360.6,190.5h19
				c0.5,0,0.9-0.4,0.9-0.9V182c0-0.5-0.4-0.9-0.9-0.9h-45.6c-0.5,0-0.9,0.4-0.9,0.9v7.5c0,0.5,0.4,0.9,0.9,0.9h19
				c0.7-1.4,2.2-2.3,3.8-2.3C358.4,188.2,359.9,189.1,360.6,190.5z"/>
		</g>
		<g class="st19">
			<path class="st12" d="M379.6,192.6h-20.5l-0.2-0.7c-0.3-0.9-1.1-1.5-2.1-1.5c-1,0-1.8,0.6-2.1,1.5l-0.2,0.7h-20.5
				c-1.7,0-3-1.3-3-3V182c0-1.6,1.3-3,3-3h45.6c1.6,0,3,1.3,3,3v7.5C382.6,191.2,381.3,192.6,379.6,192.6z M360.6,190.5h19
				c0.5,0,0.9-0.4,0.9-0.9V182c0-0.5-0.4-0.9-0.9-0.9h-45.6c-0.5,0-0.9,0.4-0.9,0.9v7.5c0,0.5,0.4,0.9,0.9,0.9h19
				c0.7-1.4,2.2-2.3,3.8-2.3C358.4,188.2,359.9,189.1,360.6,190.5z"/>
		</g>
	</g>
	<g>
		<path class="st7" d="M376.5,182.4h-39.3c-0.5,0-1-0.4-1-1v-2.5c0-0.5,0.4-1,1-1h39.3c0.5,0,1,0.4,1,1v2.5
			C377.5,181.9,377,182.4,376.5,182.4z"/>
		<path class="st20" d="M376.5,182.4h-39.3c-0.5,0-1-0.4-1-1v-2.5c0-0.5,0.4-1,1-1h39.3c0.5,0,1,0.4,1,1v2.5
			C377.5,181.9,377,182.4,376.5,182.4z"/>
	</g>
	<g>
		<g>
			
				<ellipse transform="matrix(0.2298 -0.9732 0.9732 0.2298 -33.6688 635.1227)" class="st21" cx="384.4" cy="338.8" rx="22.1" ry="22.1"/>
			<path class="st22" d="M384.4,338.8h22.1c0,12.1-10,22.1-22.1,22.1c-12.1,0-22.1-10-22.1-22.1c0-12.1,10-22.1,22.1-22.1
				c0,0,0.1,0,0.1,0L384.4,338.8z"/>
			<path class="st22" d="M384.4,338.8l11.9,18.6c-3.6,2.3-7.7,3.5-11.9,3.5c-12.1,0-22.1-10-22.1-22.1c0-12.1,10-22.1,22.1-22.1
				c0,0,0.1,0,0.1,0L384.4,338.8z"/>
			<path class="st22" d="M384.4,338.8l-18.6,11.9c-2.3-3.5-3.5-7.7-3.5-11.9c0-12.1,10-22.1,22.1-22.1c0,0,0.1,0,0.1,0L384.4,338.8z
				"/>
		</g>
		<g class="st19">
			<path d="M307.1,218v52.1h99.5V218H307.1z M405.8,226.1h-17.2v-7.4h17.2V226.1z M350.8,226.1h-17.7v-7.4h17.7V226.1z M351.6,218.8
				h17.7v7.4h-17.7V218.8z M350.8,226.9v42.4h-17.7v-42.4H350.8z M351.6,226.9h17.7v42.4h-17.7V226.9z M370.1,226.9h17.7v42.4h-17.7
				V226.9z M370.1,226.1v-7.4h17.7v7.4H370.1z M332.3,218.8v7.4h-24.4v-7.4H332.3z M307.9,226.9h24.4v42.4h-24.4V226.9z
				 M388.6,269.3v-42.4h17.2v42.4H388.6z"/>
			<path d="M338.7,234.2h7.2c0.6,0,1-0.5,1-1c0-0.6-0.5-1-1-1h-7.2c-0.6,0-1,0.5-1,1C337.7,233.7,338.2,234.2,338.7,234.2z"/>
			<path d="M356.8,243.6h7.8c0.6,0,1-0.5,1-1c0-0.6-0.5-1-1-1h-7.8c-0.6,0-1,0.5-1,1C355.8,243.1,356.3,243.6,356.8,243.6z"/>
			<path d="M365,260.3h-8.1c-0.6,0-1,0.5-1,1c0,0.6,0.5,1,1,1h8.1c0.6,0,1-0.5,1-1C366,260.8,365.6,260.3,365,260.3z"/>
			<path d="M383,250.9h-8.6c-0.6,0-1,0.5-1,1s0.5,1,1,1h8.6c0.6,0,1-0.5,1-1S383.6,250.9,383,250.9z"/>
			<path d="M401.6,232.1h-8.7c-0.6,0-1,0.5-1,1c0,0.6,0.5,1,1,1h8.7c0.6,0,1-0.5,1-1C402.6,232.6,402.1,232.1,401.6,232.1z"/>
			<path d="M400.5,260.3h-7.6c-0.6,0-1,0.5-1,1c0,0.6,0.5,1,1,1h7.6c0.6,0,1-0.5,1-1C401.5,260.8,401,260.3,400.5,260.3z"/>
			<path d="M338.7,253h6.2c0.6,0,1-0.5,1-1s-0.5-1-1-1h-6.2c-0.6,0-1,0.5-1,1S338.2,253,338.7,253z"/>
			<path d="M345.9,260.3h-7.2c-0.6,0-1,0.5-1,1c0,0.6,0.5,1,1,1h7.2c0.6,0,1-0.5,1-1C346.9,260.8,346.5,260.3,345.9,260.3z"/>
			<path d="M311.6,234.2H328c0.6,0,1-0.5,1-1c0-0.6-0.5-1-1-1h-16.4c-0.6,0-1,0.5-1,1C310.6,233.7,311,234.2,311.6,234.2z"/>
			<path d="M311.6,243.6h10.9c0.6,0,1-0.5,1-1c0-0.6-0.5-1-1-1h-10.9c-0.6,0-1,0.5-1,1C310.6,243.1,311,243.6,311.6,243.6z"/>
			<path d="M328,250.9h-16.4c-0.6,0-1,0.5-1,1s0.5,1,1,1H328c0.6,0,1-0.5,1-1S328.6,250.9,328,250.9z"/>
			<path d="M319.8,260.3h-8.2c-0.6,0-1,0.5-1,1c0,0.6,0.5,1,1,1h8.2c0.6,0,1-0.5,1-1C320.8,260.8,320.4,260.3,319.8,260.3z"/>
		</g>
		<g class="st19">
			<path d="M347,207.1h-38.8c-0.6,0-1-0.5-1-1c0-0.6,0.5-1,1-1H347c0.6,0,1,0.5,1,1C348,206.6,347.5,207.1,347,207.1z"/>
		</g>
		<g class="st19">
			<path d="M333.3,212.9h-25.2c-0.6,0-1-0.5-1-1c0-0.6,0.5-1,1-1h25.2c0.6,0,1,0.5,1,1C334.4,212.4,333.9,212.9,333.3,212.9z"/>
		</g>
		<g class="st19">
			<path d="M358.2,279.1h-50.1c-0.6,0-1-0.5-1-1s0.5-1,1-1h50.1c0.6,0,1,0.5,1,1S358.8,279.1,358.2,279.1z"/>
		</g>
		<g>
			<g>
				<rect x="307.1" y="320.2" class="st13" width="6.2" height="6.2"/>
				<g class="st19">
					<path d="M348.5,324.3h-30.7c-0.6,0-1-0.5-1-1c0-0.6,0.5-1,1-1h30.7c0.6,0,1,0.5,1,1C349.5,323.8,349.1,324.3,348.5,324.3z"/>
				</g>
			</g>
			<g>
				<rect x="307.1" y="330.5" class="st13" width="6.2" height="6.2"/>
				<g class="st19">
					<path d="M348.5,334.7h-30.7c-0.6,0-1-0.5-1-1c0-0.6,0.5-1,1-1h30.7c0.6,0,1,0.5,1,1C349.5,334.2,349.1,334.7,348.5,334.7z"/>
				</g>
			</g>
			<g>
				<rect x="307.1" y="340.9" class="st13" width="6.2" height="6.2"/>
				<g class="st19">
					<path d="M348.5,345.1h-30.7c-0.6,0-1-0.5-1-1c0-0.6,0.5-1,1-1h30.7c0.6,0,1,0.5,1,1C349.5,344.6,349.1,345.1,348.5,345.1z"/>
				</g>
			</g>
			<g>
				<rect x="307.1" y="351.3" class="st13" width="6.2" height="6.2"/>
				<g class="st19">
					<path d="M348.5,355.4h-30.7c-0.6,0-1-0.5-1-1c0-0.6,0.5-1,1-1h30.7c0.6,0,1,0.5,1,1C349.5,355,349.1,355.4,348.5,355.4z"/>
				</g>
			</g>
		</g>
		<g class="st19">
			<g>
				<path d="M405.2,288.3h-89.9c-0.6,0-1-0.5-1-1s0.5-1,1-1h89.9c0.6,0,1,0.5,1,1S405.8,288.3,405.2,288.3z"/>
			</g>
			<g>
				<path d="M405.3,293.5h-97.2c-0.6,0-1-0.5-1-1c0-0.6,0.5-1,1-1h97.2c0.6,0,1,0.5,1,1C406.4,293.1,405.9,293.5,405.3,293.5z"/>
			</g>
			<g>
				<path d="M405.5,298.7h-97.2c-0.6,0-1-0.5-1-1c0-0.6,0.5-1,1-1h97.2c0.6,0,1,0.5,1,1C406.5,298.3,406,298.7,405.5,298.7z"/>
			</g>
			<g>
				<path d="M391,303.9h-82.7c-0.6,0-1-0.5-1-1s0.5-1,1-1H391c0.6,0,1,0.5,1,1S391.6,303.9,391,303.9z"/>
			</g>
		</g>
		<rect x="307.1" y="330.5" class="st22" width="6.2" height="6.2"/>
		<rect x="307.1" y="340.9" class="st23" width="6.2" height="6.2"/>
		<rect x="307.1" y="351.3" class="st8" width="6.2" height="6.2"/>
	</g>
</g>
<g>
	<g>
		<path class="st13" d="M192.2,161.1H222c5.1,0,9.2,4.1,9.2,9.2v25.9c0,5.1-4.1,9.2-9.2,9.2h-8.7l3.1,11.3l-9.3-11.3h-14.9
			c-5.1,0-9.2-4.1-9.2-9.2v-25.9C183,165.2,187.1,161.1,192.2,161.1z"/>
		<path class="st14" d="M192.2,161.1H222c5.1,0,9.2,4.1,9.2,9.2v25.9c0,5.1-4.1,9.2-9.2,9.2h-8.7l3.1,11.3l-9.3-11.3h-14.9
			c-5.1,0-9.2-4.1-9.2-9.2v-25.9C183,165.2,187.1,161.1,192.2,161.1z"/>
	</g>
	<g>
		<circle class="st8" cx="202.6" cy="179.6" r="9.3"/>
		<circle class="st24" cx="202.6" cy="179.6" r="9.3"/>
		<line class="st24" x1="209.2" y1="186.2" x2="219.7" y2="196.8"/>
		<line class="st25" x1="212.8" y1="189.8" x2="220.9" y2="197.9"/>
	</g>
	<path class="st12" d="M204,175.4c0,1.1-0.9,2.1-2.1,2.1s-2.1-0.9-2.1-2.1c0-1.1,0.9-2.1,2.1-2.1S204,174.3,204,175.4z"/>
	<path class="st12" d="M207.1,177c0,0.6-0.5,1-1,1c-0.6,0-1-0.5-1-1c0-0.6,0.5-1,1-1C206.6,175.9,207.1,176.4,207.1,177z"/>
</g>
<g>
	<g>
		<g>
			<rect x="135.8" y="351.8" class="st13" width="154.5" height="24.9"/>
			<rect x="135.8" y="351.8" class="st26" width="154.5" height="24.9"/>
		</g>
		<g>
			<polygon class="st10" points="290.2,358.4 290.2,356.4 184.5,357.2 			"/>
			<polygon class="st10" points="290.2,367.1 290.2,365.6 242.7,367.3 			"/>
			<polygon class="st10" points="290.2,373 290.2,370.9 213.7,372.1 			"/>
			<path class="st10" d="M170.3,351.8l-2.2,18.5l2.6-2.8c1.2,5.2,4.9,9.1,4.9,9.1s2.5-3.1,3.9-7.1l72.1-0.8l-71.5-1.6
				c0.2-1,0.4-2,0.4-3.1c0-0.9-0.1-1.7-0.3-2.6l105.8-0.3L180,360.4c-0.4-1.5-1-2.8-1.6-4c1.5-1.3,3.4-2.1,5.5-2.1h106.3v-2.4H170.3
				z"/>
		</g>
		<path class="st13" d="M172.7,364.1c0,3.1,1.3,5.9,3.3,7.9c2,2,4.8,3.3,8,3.3H292c0.5,0,0.8,0.4,0.8,0.8v0.9c0,0.5-0.4,0.8-0.8,0.8
			H132.4c-3.8,0-7.3-1.5-9.8-4c-2.5-2.5-4.1-6-4-9.9c0.1-7.6,6.5-13.7,14.2-13.7H292c0.5,0,0.8,0.4,0.8,0.8v0.9
			c0,0.5-0.4,0.8-0.8,0.8H184.3C178.1,352.9,172.7,357.9,172.7,364.1z"/>
		<path class="st14" d="M172.7,364.1c0,3.1,1.3,5.9,3.3,7.9c2,2,4.8,3.3,8,3.3H292c0.5,0,0.8,0.4,0.8,0.8v0.9c0,0.5-0.4,0.8-0.8,0.8
			H132.4c-3.8,0-7.3-1.5-9.8-4c-2.5-2.5-4.1-6-4-9.9c0.1-7.6,6.5-13.7,14.2-13.7H292c0.5,0,0.8,0.4,0.8,0.8v0.9
			c0,0.5-0.4,0.8-0.8,0.8H184.3C178.1,352.9,172.7,357.9,172.7,364.1z"/>
		<path class="st13" d="M172.7,364.1c0,3.1,1.3,5.9,3.3,7.9c2,2,4.8,3.3,8,3.3H292c0.5,0,0.8,0.4,0.8,0.8v0.9c0,0.5-0.4,0.8-0.8,0.8
			H183.3c-3.8,0-7.3-1.5-9.8-4c-2.5-2.5-4.1-6-4-9.9c0.1-7.6,6.5-13.7,14.2-13.7H292c0.5,0,0.8,0.4,0.8,0.8v0.9
			c0,0.5-0.4,0.8-0.8,0.8H184.3C178.1,352.9,172.7,357.9,172.7,364.1z"/>
		<polygon class="st7" points="193,357.4 193,367.4 196.6,363.8 200.1,367.3 200.1,357.4 		"/>
		<path class="st9" d="M172.7,364.1c0,3.1,1.3,5.9,3.3,7.9c2,2,4.8,3.3,8,3.3H292c0.5,0,0.8,0.4,0.8,0.8v0.9c0,0.5-0.4,0.8-0.8,0.8
			H183.3c-3.8,0-7.3-1.5-9.8-4c-2.5-2.5-4.1-6-4-9.9c0.1-7.6,6.5-13.7,14.2-13.7H292c0.5,0,0.8,0.4,0.8,0.8v0.9
			c0,0.5-0.4,0.8-0.8,0.8H184.3C178.1,352.9,172.7,357.9,172.7,364.1z"/>
	</g>
	<g>
		<g>
			<rect x="143.2" y="406.6" class="st13" width="154.5" height="24.9"/>
			<rect x="143.2" y="406.6" class="st8" width="154.5" height="24.9"/>
		</g>
		<g>
			<polygon class="st10" points="297.7,413.2 297.7,411.2 191.9,412 			"/>
			<polygon class="st10" points="297.7,421.9 297.7,420.3 250.2,422 			"/>
			<polygon class="st10" points="297.7,427.7 297.7,425.7 221.1,426.9 			"/>
			<path class="st10" d="M177.7,406.6l-2.2,18.5l2.6-2.8c1.2,5.2,4.9,9.1,4.9,9.1s2.5-3.1,3.9-7.1l72.1-0.8l-71.5-1.6
				c0.2-1,0.4-2,0.4-3.1c0-0.9-0.1-1.7-0.3-2.6l105.8-0.3l-106.1-0.8c-0.4-1.5-1-2.8-1.6-4c1.5-1.3,3.4-2.1,5.5-2.1h106.3v-2.4
				H177.7z"/>
		</g>
		<path class="st7" d="M180.1,418.9c0,3.1,1.3,5.9,3.3,7.9c2,2,4.8,3.3,8,3.3h108.1c0.5,0,0.8,0.4,0.8,0.8v0.9
			c0,0.5-0.4,0.8-0.8,0.8H131.3c-3.8,0-7.3-1.5-9.8-4c-2.5-2.5-4.1-6-4-9.9c0.1-7.6,6.5-13.7,14.2-13.7h167.8c0.5,0,0.8,0.4,0.8,0.8
			v0.9c0,0.5-0.4,0.8-0.8,0.8H191.7C185.5,407.6,180.1,412.7,180.1,418.9z"/>
		<path class="st20" d="M180.1,418.9c0,3.1,1.3,5.9,3.3,7.9c2,2,4.8,3.3,8,3.3h108.1c0.5,0,0.8,0.4,0.8,0.8v0.9
			c0,0.5-0.4,0.8-0.8,0.8H131.3c-3.8,0-7.3-1.5-9.8-4c-2.5-2.5-4.1-6-4-9.9c0.1-7.6,6.5-13.7,14.2-13.7h167.8c0.5,0,0.8,0.4,0.8,0.8
			v0.9c0,0.5-0.4,0.8-0.8,0.8H191.7C185.5,407.6,180.1,412.7,180.1,418.9z"/>
		<path class="st7" d="M180.1,418.9c0,3.1,1.3,5.9,3.3,7.9c2,2,4.8,3.3,8,3.3h108.1c0.5,0,0.8,0.4,0.8,0.8v0.9
			c0,0.5-0.4,0.8-0.8,0.8H190.8c-3.8,0-7.3-1.5-9.8-4c-2.5-2.5-4.1-6-4-9.9c0.1-7.6,6.5-13.7,14.2-13.7h108.3c0.5,0,0.8,0.4,0.8,0.8
			v0.9c0,0.5-0.4,0.8-0.8,0.8H191.7C185.5,407.6,180.1,412.7,180.1,418.9z"/>
		<polygon class="st21" points="191.9,415.7 191.9,425.7 195.5,422.1 199,425.6 199,415.7 		"/>
		<path class="st27" d="M180.1,418.9c0,3.1,1.3,5.9,3.3,7.9c2,2,4.8,3.3,8,3.3h108.1c0.5,0,0.8,0.4,0.8,0.8v0.9
			c0,0.5-0.4,0.8-0.8,0.8H190.8c-3.8,0-7.3-1.5-9.8-4c-2.5-2.5-4.1-6-4-9.9c0.1-7.6,6.5-13.7,14.2-13.7h108.3c0.5,0,0.8,0.4,0.8,0.8
			v0.9c0,0.5-0.4,0.8-0.8,0.8H191.7C185.5,407.6,180.1,412.7,180.1,418.9z"/>
	</g>
	<g>
		
			<rect x="129.3" y="379.2" transform="matrix(-1 -1.224647e-16 1.224647e-16 -1 315.865 783.2784)" class="st13" width="57.2" height="24.8"/>
		
			<rect x="129.3" y="379.2" transform="matrix(-1 -1.224647e-16 1.224647e-16 -1 315.865 783.2784)" class="st26" width="57.2" height="24.8"/>
		<polygon class="st10" points="182,381.7 129.3,381.7 129.3,379.2 181.9,379.2 		"/>
		<g>
			<polygon class="st10" points="182,383.8 134.5,384.8 182,385.8 			"/>
			<polygon class="st10" points="182,393 131.7,393.8 182,394.5 			"/>
			<polygon class="st10" points="182,398.3 132.1,399.3 182,400.3 			"/>
			<polygon class="st10" points="129.3,387.3 177.5,388.8 129.3,389.8 			"/>
		</g>
		<path class="st7" d="M257,391.5c0,3.1-1.3,5.9-3.3,7.9c-2,2-4.8,3.3-8,3.3H126.7c-0.5,0-0.8,0.4-0.8,0.8v0.9
			c0,0.5,0.4,0.8,0.8,0.8h119.7c3.8,0,7.3-1.5,9.8-4c2.5-2.5,4.1-6,4-9.9c-0.1-7.6-6.5-13.7-14.2-13.7l-119.4,0
			c-0.5,0-0.8,0.4-0.8,0.8v0.9c0,0.5,0.4,0.8,0.8,0.8h118.8C251.7,380.2,257,385.3,257,391.5z"/>
		<path class="st27" d="M257,391.5c0,3.1-1.3,5.9-3.3,7.9c-2,2-4.8,3.3-8,3.3H126.7c-0.5,0-0.8,0.4-0.8,0.8v0.9
			c0,0.5,0.4,0.8,0.8,0.8h119.7c3.8,0,7.3-1.5,9.8-4c2.5-2.5,4.1-6,4-9.9c-0.1-7.6-6.5-13.7-14.2-13.7l-119.4,0
			c-0.5,0-0.8,0.4-0.8,0.8v0.9c0,0.5,0.4,0.8,0.8,0.8h118.8C251.7,380.2,257,385.3,257,391.5z"/>
		<g>
			<path class="st13" d="M300.5,391.7L300.5,391.7c0,6.9-5.6,12.4-12.4,12.4H182v-24.9h106.1C294.9,379.2,300.5,384.8,300.5,391.7z"
				/>
			<path class="st8" d="M182,379.2v24.9h106.1c2.6,0,5.1-0.8,7.1-2.2c3.2-2.2,5.4-6,5.4-10.2c0-6.9-5.6-12.4-12.4-12.4H182z"/>
		</g>
		<g>
			<polygon class="st10" points="182,385.8 182,383.8 287.7,384.6 			"/>
			<polygon class="st10" points="182,394.5 182,393 229.4,394.6 			"/>
			<polygon class="st10" points="182,400.3 182,398.3 258.5,399.5 			"/>
			<path class="st10" d="M288.2,381.7c2.1,0,4,0.8,5.5,2.1c-0.6,1.2-1.2,2.6-1.6,4l-106.1,0.8l105.8,0.3c-0.2,0.8-0.3,1.7-0.3,2.6
				c0,1,0.1,2.1,0.4,3.1l-71.5,1.6l72.1,0.8c0.7,2,1.6,3.7,2.4,4.9c3.2-2.2,5.4-6,5.4-10.2c0-6.9-5.6-12.4-12.4-12.4H182v2.4H288.2z
				"/>
		</g>
		<path class="st7" d="M299.5,391.5c0,3.1-1.3,5.9-3.3,7.9c-2,2-4.8,3.3-8,3.3H180.2c-0.5,0-0.8,0.4-0.8,0.8v0.9
			c0,0.5,0.4,0.8,0.8,0.8h108.7c3.8,0,7.3-1.5,9.8-4c2.5-2.5,4.1-6,4-9.9c-0.1-7.6-6.5-13.7-14.2-13.7l-108.3,0
			c-0.5,0-0.8,0.4-0.8,0.8v0.9c0,0.5,0.4,0.8,0.8,0.8h107.7C294.1,380.2,299.5,385.3,299.5,391.5z"/>
		<polygon class="st13" points="287.7,388.4 287.7,398.3 284.1,394.7 280.6,398.2 280.6,388.4 		"/>
	</g>
</g>
<g>
	<path class="st28" d="M315.7,248.3l-2.6,0c-1,0-1.9,0.5-2.4,1.3l-2.6,3.8c-1,1.5-1.3,3.4-0.6,5.1l0.4,1.1c4.3,0.2,9.1-2.7,9.1-2.7
		l1.5-0.7c1.3-0.6,1.9-2.1,1.3-3.3l-1.3-2.9C318,248.9,316.9,248.3,315.7,248.3z"/>
	<g>
		<path class="st29" d="M266.4,253c5,4.1,10.5,8,16.1,11.1c1.9,1,3.8,1.9,5.7,2.7c0,0-1-0.2-1-0.2c0,0.1,0.6,0.1,1.3-0.1
			c4.6-1.5,8.9-4.7,12.9-7.5c1.8-1.2,3.5-2.6,5.2-3.9c1.1-0.9,2.8-0.7,3.6,0.5c0.7,0.9,0.7,2.2,0,3.1c-1.4,1.9-2.9,3.5-4.5,5.2
			c-4.9,4.9-11.9,12.2-19.5,11.9c-10.1-2.6-18.9-8.4-26.7-15.1C254.9,256,261.3,248.8,266.4,253L266.4,253z"/>
	</g>
	<path class="st21" d="M252.6,245.5c-2.4,6.8,1.5,13.5,10.9,21.4c4.7-0.7,11-10.3,11-10.3S261.3,243.4,252.6,245.5z"/>
	<path class="st7" d="M260.7,203.5c0,0-9.3-9.5-21.3,2.4c-12.1,11.9-14.4,51.3-14.4,51.3l31.5,6.1c0,0,4.1-4.7,6.2-18.2
		c2.1-13.5,3.2-26.4,5.9-29.4C271.2,212.8,260.7,203.5,260.7,203.5z"/>
	<polygon class="st28" points="287.8,403.1 280.9,400.4 283.6,390.4 286.1,381.3 294.7,383.2 291,393.7 	"/>
	<polygon class="st10" points="290.9,393.9 283.5,390.6 286,381.4 294.7,383.2 	"/>
	<path class="st7" d="M236.1,313.5c0,0,57-7.7,72.9,2.4c15.9,10.1-14.8,71.8-14.8,71.8l-9.6-2.1c0,0,7.2-48.9,6.7-50.9
		c-0.5-2-27.4,11.3-64.2,12.6L236.1,313.5z"/>
	<path class="st10" d="M236.1,313.5c0,0,57-7.7,72.9,2.4c15.9,10.1-14.8,71.8-14.8,71.8l-9.6-2.1c0,0,7.2-48.9,6.7-50.9
		c-0.5-2-27.4,11.3-64.2,12.6L236.1,313.5z"/>
	<polygon class="st7" points="284,382.5 296.1,386.4 294,391.9 282.9,388.1 	"/>
	<g>
		<path class="st30" d="M290.2,401.9c0,0,2.4-3.1,3.9-1.7C295.7,401.8,290.2,401.9,290.2,401.9s4.7,0.2,4.6,1.8
			C294.6,406,290.2,401.9,290.2,401.9z"/>
		<path class="st31" d="M279.7,396.1c0.3-0.8,9.5,2.9,9.5,2.9s3.9,7.8,9.1,11c5.2,3.2,1,5.5-5.4,3.5c-6.3-2.1-11.1-3.6-15.6-5.1
			C272.8,407,276.9,404,279.7,396.1z"/>
	</g>
	<polygon class="st32" points="284,382.5 296.1,386.4 294,391.9 282.9,388.1 	"/>
	<polygon class="st28" points="317.5,422.8 310.5,424.8 306.5,415.3 302.9,406.6 310.9,402.8 314.4,413.4 	"/>
	<path class="st31" d="M307.3,419.8c0-0.8,10,0.1,10,0.1s6,6.4,11.9,7.9c5.9,1.5,2.5,5-4.1,4.9c-6.6-0.2-11.7-0.3-16.4-0.4
		C303.9,432.1,306.9,428.2,307.3,419.8z"/>
	<path class="st30" d="M318.5,421c0,0,1.4-3.6,3.2-2.7C323.8,419.3,318.5,421,318.5,421s4.5-1.2,4.9,0.4
		C323.9,423.7,318.5,421,318.5,421z"/>
	<polygon class="st10" points="314.5,413.6 306.6,415.5 303,406.7 311,402.9 	"/>
	<path class="st7" d="M252.3,320.8c0,0-0.8-11.3-1.2-13.6c-0.4-2.4-0.9-5.3-1.4-6.8c-2.5-7.5-36,1.3-36,1.3l-1,5.2
		c0,0-15.1,28.5-5,38.8c3.1,3.1,9.1,4.5,15.3,4.5c0,0,18.8,0.9,53.8-0.7c0,0-2.6,20.4,26.2,60.3l9.6-3.1c0,0-19.1-72.4-20.7-73.7
		C278,321.7,252.3,320.8,252.3,320.8z"/>
	<polygon class="st7" points="301.2,409.4 313.2,405.1 314.8,410.8 303.7,414.6 	"/>
	<path class="st21" d="M263.6,250.9c0,0-1.2,2.9-2.9,8.1c-0.4,1.2-0.8,2.5-1.3,4c-0.6,1.9-1.2,3.9-1.8,6.2c-0.4,1.6-0.9,3.3-1.3,5.1
		c-0.4,1.8-0.9,3.7-1.3,5.7c0,0.2-0.1,0.5-0.1,0.7c-1.7,7.6-3.2,15-4.1,24.4l-36.8-3.2c0,0-0.1-11.4,1.3-24.2
		c0.7-6.9,1.9-14.3,3.8-20.5c1.5-4.9,3.3-9,5.8-11.7C224.7,245.3,244.7,238.7,263.6,250.9z"/>
	<path class="st13" d="M244.8,240c-11.1-3.5-15.4,5.1-15.4,5.1l5.9-0.6l12,15l7-9.1l4.4,2.4C258.7,252.9,254.4,243.1,244.8,240z"/>
	<path class="st33" d="M244.8,240c-11.1-3.5-15.4,5.1-15.4,5.1l5.9-0.6l12,15l7-9.1l4.4,2.4C258.7,252.9,254.4,243.1,244.8,240z"/>
	<path class="st28" d="M247,258.8l-10.2-15.2c4.8-2.2,8-11.3,8.7-16.5l7.2,10.8c-2.3,3.5-3.9,7.5,1.5,10.5
		C254.1,248.4,247,258.8,247,258.8z"/>
	<path class="st34" d="M248.4,231.5l4.3,6.4c-0.6,0.8-1.1,1.7-1.4,2.5c-2.1-1-4.4-4.1-3.9-6.4C247.6,233,248,232,248.4,231.5z"/>
	<g>
		<polygon points="213.3,303 224.8,303.7 224.4,307 212.2,306.1 		"/>
		<polygon points="251.6,308.9 225.8,307.1 226.2,303.8 251.2,305.5 		"/>
		<path class="st35" d="M238.2,305.1l-0.1,2.1c0,0.5,0.4,0.9,0.8,0.9l3.2,0.2c0.5,0,0.9-0.3,1-0.8l0.2-2.2c0-0.5-0.3-0.9-0.9-1
			l-3.2-0.2C238.6,304.2,238.2,304.6,238.2,305.1z"/>
	</g>
	<polygon class="st36" points="301.2,409.4 313.2,405.1 314.8,410.8 303.7,414.6 	"/>
	<g>
		<path class="st37" d="M270.7,224c0,0-1.1-2.2-3.1-2.3"/>
		<path class="st38" d="M267.2,228.8c0,0,0.2,2.5,0.9,4.2c0,0-1.1,0.8-2.4,0L267.2,228.8z"/>
		<g>
			<path class="st7" d="M269.5,227.3c-0.3,0.6-0.8,1-1.3,0.9c-0.4-0.2-0.6-0.8-0.3-1.5c0.3-0.6,0.8-1,1.3-0.9
				C269.6,225.9,269.8,226.6,269.5,227.3z"/>
			<path class="st7" d="M269,225.7l1.6,0C270.6,225.7,269.4,226.6,269,225.7z"/>
		</g>
		<path class="st28" d="M245.6,232.8c0,0.1,0.1,0.2,0.2,0.3c0.1,0.2,0.2,0.4,0.3,0.6c0.7,1.2,1.5,2.4,2.7,3.3
			c3.5,2.9,6.6,3.9,9.3,3.1c0.1,0,0.3-0.1,0.4-0.1c0,0,0,0,0,0c4.1-1.5,7.3-6.3,10-12.5c1.3-2.9,2.1-5.5,2.3-7.8c0,0,0-0.1,0-0.1
			c0-0.1,0-0.2,0-0.3c0.2-3.2-0.9-5.9-3.6-8.2c-0.9-0.8-2.1-1.5-3.4-2.2C252,202.8,239.9,221.5,245.6,232.8z"/>
		<path class="st7" d="M270.8,219.7c0,0-3.5,8.7-13.3,8.3c0,0-7.8,7-12.8,4.6c-6.9-3.3-8-16-0.7-24.7
			C253.5,196.6,273.4,205.3,270.8,219.7z"/>
		<path class="st28" d="M262.7,227.6c0.7-1.3,0.7-4-1.5-4.7c-2.2-0.7-6,3.8-1.4,7.6C260.5,231,261.4,230.3,262.7,227.6z"/>
		<path class="st7" d="M260.7,203.5c0,0,9,2,11.8,7.4c3.3,6.3,3.3,11.2-5.8,14.1c0,0-11.2-11.1-16.1-12.4c-4.9-1.3-8.7-1.6-8.7-1.6
			C245.3,201.7,257.2,199.5,260.7,203.5z"/>
	</g>
	<path class="st7" d="M257.5,228c-5.6,11.3-18.1,30.4-31.3,16.9c0,0,4.7-15.3,14.3-21.6C250.2,217,257.5,228,257.5,228z"/>
	<path class="st7" d="M255.5,246.8c4.8,3.6-1.3,15.3,4.7,17.9c0,0-1.9-2.3-0.6-5.5c1.3-3.2,6.5-11.6,4.4-23.1L255.5,246.8z"/>
	<path class="st34" d="M230.5,271.5c0,0-7.9,5.3-15.3,6c0.7-6.9,1.9-14.3,3.8-20.5c1.2-0.6,2.3-0.9,3.1-0.9c5.5,0.1,7.6,5.3,7.6,5.3
		S230.6,266.6,230.5,271.5z"/>
	<path class="st28" d="M259.2,308.5l-1.7-2c-0.6-0.8-1.6-1.2-2.5-1.1l-4.5,0.3c-1.8,0.1-3.5,1.1-4.4,2.7l-0.6,1
		c2.5,3.5,7.8,5.4,7.8,5.4l1.5,0.7c1.3,0.6,2.8,0.2,3.4-1.1l1.5-2.9C260.2,310.6,260,309.4,259.2,308.5z"/>
	<g>
		<path class="st29" d="M227.1,260.8c-0.1,8.6,0.4,17.5,2.9,25.7c0,0-0.4-0.9-0.4-0.9c1,1.6,2.7,3.5,4,5.1
			c3.3,3.7,11.7,12.2,15.3,15.9c2.1,2.1-0.7,5.5-3.2,3.9c-6.4-4.2-12.4-8.7-18.1-13.7c-2.2-2.2-4.6-4-6.2-7
			c-3.8-9.4-4.9-19.4-4.5-29.4C217.6,253.7,227.2,254.1,227.1,260.8L227.1,260.8z"/>
	</g>
	<path class="st21" d="M224.4,245.3c-6.8,2.3-9.6,9.6-9.9,21.9c3.5,3.2,14.9,2.2,14.9,2.2S231.4,250.8,224.4,245.3z"/>
	<g>
		<path class="st7" d="M297.6,318v3.3c0,0.8-1,1.2-1.8,1.2h-65.5c-0.8,0-1.9-0.3-1.9-1.2V318H297.6z"/>
		<path class="st32" d="M297.6,318v3.3c0,0.8-1,1.2-1.8,1.2h-65.5c-0.8,0-1.9-0.3-1.9-1.2V318H297.6z"/>
		<path class="st10" d="M297.6,318v3.3c0,0.8-1,1.2-1.8,1.2h-43.2c-0.8,0-1.8-0.3-1.8-1.2V318H297.6z"/>
		<path class="st7" d="M308.5,284l-7.8,35.3c-0.3,1.2-1.4,2-2.5,2h-42.6c-1.1,0-1.9-1.1-1.6-2.2l7.8-35.1c0.3-1.2,1.4-1.7,2.5-1.7
			h42.6C308.1,282.4,308.8,282.9,308.5,284z"/>
		<path class="st32" d="M308.5,284l-7.8,35.3c-0.3,1.2-1.4,2-2.5,2h-41.1c-1.1,0-1.9-1.1-1.6-2.2l7.8-35.1c0.3-1.2,1.4-1.7,2.5-1.7
			h41.1C308.1,282.4,308.8,282.9,308.5,284z"/>
		<path class="st10" d="M287.5,302L287.5,302c0,3-3.2,5.5-5.6,5.5c-2.4,0-3.8-2.5-3.1-5.5c0.7-3,3-5.4,5.4-5.5
			c-0.7,3,0.8,5.5,3.1,5.5C287.4,302,287.5,302,287.5,302z"/>
	</g>
</g>
</svg>
