<?xml version="1.0" encoding="utf-8"?>
<!-- Generator: Adobe Illustrator 26.0.1, SVG Export Plug-In . SVG Version: 6.00 Build 0)  -->
<svg version="1.1" id="Layer_1" xmlns="http://www.w3.org/2000/svg" xmlns:xlink="http://www.w3.org/1999/xlink" x="0px" y="0px"
	 viewBox="0 0 980 500" style="enable-background:new 0 0 980 500;" xml:space="preserve">
<style type="text/css">
	.st0{fill:#ECECEC;}
	.st1{fill:#1A2E35;}
	.st2{fill:#DCDCDC;}
	.st3{fill:#375A64;}
	.st4{fill:#FFC800;}
	.st5{fill:#FFFFFF;}
	.st6{fill:#999999;}
	.st7{opacity:0.6;fill:#FFFFFF;}
	.st8{opacity:0.2;}
	.st9{opacity:0.1;}
	.st10{opacity:0.1;fill:#333333;}
	.st11{fill:#666666;}
	.st12{fill:#333333;}
	.st13{opacity:0.8;}
	.st14{fill:#CCCCCC;}
	.st15{fill:#A8A8A8;}
	.st16{fill:#CC3333;}
	.st17{opacity:0.4;}
	.st18{fill:#C8C8C8;}
	.st19{fill:#FF9581;}
	.st20{fill:#2B454E;}
	.st21{fill:#006699;}
	.st22{fill:#3366FF;}
	.st23{fill:#FF98BB;}
	.st24{fill:none;}
	.st25{fill:#808080;}
	.st26{fill:#FFFFCC;}
</style>
<g>
	<g>
		<g>
			<path class="st0" d="M901.5,95.3l7.8-12.6l-3.9-2.4c-1.1-0.7-1.7-2-1.6-3.3c0.1-0.7,0.1-1.5,0.1-2.2c0-1.3,0.7-2.6,1.8-3.2l4-2.1
				l-7-13l-4,2.1c-1.2,0.6-2.6,0.5-3.7-0.2c-0.6-0.4-1.2-0.8-1.9-1.2c-1.2-0.6-1.9-1.9-1.9-3.2l0.1-4.5L876.6,49l-0.1,4.5
				c0,1.3-0.9,2.5-2.1,3.1c-0.3,0.2-0.7,0.3-1,0.5c-0.3,0.2-0.6,0.4-0.9,0.5c-1.1,0.7-2.5,0.7-3.7,0l-3.9-2.4l-7.8,12.6l3.9,2.4
				c1.1,0.7,1.7,2,1.6,3.3c-0.1,0.7-0.1,1.5-0.1,2.2c0,1.3-0.7,2.6-1.8,3.2l-4,2.1l7,13l4-2.1c1.2-0.6,2.6-0.5,3.7,0.2
				c0.6,0.4,1.2,0.8,1.9,1.2c1.2,0.6,1.9,1.9,1.9,3.2l-0.1,4.5l14.8,0.5l0.1-4.5c0-1.3,0.9-2.5,2.1-3.1c0.3-0.2,0.7-0.3,1-0.5
				c0.3-0.2,0.6-0.4,0.9-0.5c1.1-0.7,2.6-0.7,3.7,0L901.5,95.3z M888.9,86c-5.9,3.2-13.2,0.9-16.4-5c-3.2-5.9-1-13.3,4.9-16.4
				c5.9-3.2,13.3-0.9,16.4,5C897.1,75.5,894.9,82.8,888.9,86z"/>
			<path class="st0" d="M162.5,404.9l-5.2-9l-2.7,1.6c-0.8,0.5-1.8,0.4-2.6-0.1c-0.4-0.3-0.9-0.5-1.3-0.8c-0.8-0.4-1.4-1.3-1.4-2.2
				v-3.2h-10.4v3.2c0,0.9-0.5,1.8-1.4,2.2c-0.5,0.2-0.9,0.5-1.3,0.8c-0.8,0.5-1.8,0.6-2.6,0.1l-2.7-1.6l-5.2,9l2.8,1.6
				c0.8,0.5,1.3,1.4,1.2,2.3c0,0.3,0,0.5,0,0.8c0,0.3,0,0.5,0,0.8c0,0.9-0.4,1.8-1.2,2.3l-2.8,1.6l5.2,9l2.8-1.6
				c0.8-0.5,1.8-0.4,2.6,0.1c0.4,0.3,0.9,0.5,1.3,0.8c0.8,0.4,1.4,1.3,1.4,2.2v3.2h10.4v-3.2c0-0.9,0.5-1.8,1.4-2.2
				c0.5-0.2,0.9-0.5,1.3-0.8c0.8-0.5,1.8-0.6,2.6-0.1l2.8,1.6l5.2-9l-2.8-1.6c-0.8-0.5-1.3-1.4-1.2-2.3c0-0.3,0-0.5,0-0.8
				c0-0.3,0-0.5,0-0.8c0-0.9,0.4-1.8,1.2-2.3L162.5,404.9z M152.5,409.5c0,4.7-3.8,8.5-8.5,8.5c-4.7,0-8.5-3.8-8.5-8.5
				c0-4.7,3.8-8.5,8.5-8.5C148.7,401,152.5,404.8,152.5,409.5z"/>
			<g>
				<g>
					<path class="st0" d="M120.3,272.7c-22.3,0-40.4,18.1-40.4,40.4c0,22.3,18.1,40.4,40.4,40.4c22.3,0,40.4-18.1,40.4-40.4
						C160.7,290.8,142.6,272.7,120.3,272.7z M120.3,332c-10.4,0-18.9-8.4-18.9-18.9c0-10.4,8.4-18.9,18.9-18.9
						c10.4,0,18.9,8.4,18.9,18.9C139.2,323.5,130.7,332,120.3,332z"/>
					<polygon class="st0" points="128.1,274.4 112.5,274.4 113.4,263.4 127.2,263.4 					"/>
					<polygon class="st0" points="98.5,279.6 87.5,290.6 80.4,282.2 90.1,272.5 					"/>
					<polygon class="st0" points="81.3,304.2 81.3,319.8 70.3,318.9 70.3,305.1 					"/>
					<polygon class="st0" points="86.5,333.8 97.5,344.8 89.1,352 79.4,342.2 					"/>
					<polygon class="st0" points="111.1,351 126.7,351 125.8,362 112,362 					"/>
					<polygon class="st0" points="140.7,345.8 151.7,334.8 158.8,343.2 149.1,352.9 					"/>
					<polygon class="st0" points="157.9,321.2 157.9,305.6 168.9,306.5 168.9,320.3 					"/>
					<polygon class="st0" points="152.7,291.6 141.7,280.6 150.1,273.5 159.8,283.2 					"/>
				</g>
			</g>
			<g>
				<g>
					<path class="st0" d="M837.4,134.4c-22.3,0-40.4,18.1-40.4,40.4c0,22.3,18.1,40.4,40.4,40.4c22.3,0,40.4-18.1,40.4-40.4
						C877.8,152.5,859.7,134.4,837.4,134.4z M837.4,193.6c-10.4,0-18.9-8.4-18.9-18.9c0-10.4,8.4-18.9,18.9-18.9
						c10.4,0,18.9,8.4,18.9,18.9C856.3,185.2,847.8,193.6,837.4,193.6z"/>
					<polygon class="st0" points="845.2,136.1 829.6,136.1 830.5,125.1 844.3,125.1 					"/>
					<polygon class="st0" points="815.6,141.3 804.6,152.3 797.5,143.9 807.2,134.1 					"/>
					<polygon class="st0" points="798.4,165.9 798.4,181.4 787.4,180.6 787.4,166.8 					"/>
					<polygon class="st0" points="803.6,195.5 814.6,206.5 806.2,213.6 796.5,203.9 					"/>
					<polygon class="st0" points="828.2,212.7 843.8,212.7 842.9,223.7 829.1,223.7 					"/>
					<polygon class="st0" points="857.8,207.4 868.8,196.5 875.9,204.8 866.2,214.6 					"/>
					<polygon class="st0" points="875,182.8 875,167.3 886,168.2 886,182 					"/>
					<polygon class="st0" points="869.8,153.3 858.8,142.3 867.2,135.1 876.9,144.9 					"/>
				</g>
			</g>
		</g>
		<g>
			<path class="st1" d="M68.2,453.8c270.2-0.6,573.4-0.6,843.6,0C641.6,454.4,338.4,454.4,68.2,453.8L68.2,453.8z"/>
		</g>
		<g>
			<rect x="197.4" y="56.6" class="st2" width="585.1" height="391.4"/>
			<rect x="201.7" y="61.4" class="st1" width="576.6" height="381.9"/>
			<g>
				<polygon class="st2" points="121.2,477.4 197.4,448 782.6,448 858.8,477.4 				"/>
				<polygon class="st1" points="204.2,467 253.4,448 726.6,448 775.8,467 				"/>
			</g>
			<g>
				<g>
					<rect x="233.8" y="90.3" width="512.3" height="324.1"/>
					<g>
						<rect x="233.8" y="90.3" class="st3" width="512.3" height="12.5"/>
						<g>
							<path class="st4" d="M243.8,96.5c0,1.7-1.4,3.1-3.1,3.1c-1.7,0-3.1-1.4-3.1-3.1c0-1.7,1.4-3.1,3.1-3.1
								C242.4,93.4,243.8,94.8,243.8,96.5z"/>
							<path class="st0" d="M256.4,96.5c0,1.7-1.4,3.1-3.1,3.1c-1.7,0-3.1-1.4-3.1-3.1c0-1.7,1.4-3.1,3.1-3.1
								C255,93.4,256.4,94.8,256.4,96.5z"/>
							<path class="st5" d="M269,96.5c0,1.7-1.4,3.1-3.1,3.1c-1.7,0-3.1-1.4-3.1-3.1c0-1.7,1.4-3.1,3.1-3.1
								C267.6,93.4,269,94.8,269,96.5z"/>
						</g>
					</g>
				</g>
				<g>
					<g>
						
							<rect x="478.8" y="242.2" transform="matrix(-1 -1.224647e-16 1.224647e-16 -1 1050.9912 556.1046)" class="st6" width="93.3" height="71.6"/>
						<path class="st7" d="M488.1,257.9c-1.1,6,4,11.1,10,10c3.3-0.6,6-3.3,6.7-6.7c1.1-6-4-11.1-10-10
							C491.4,251.9,488.7,254.6,488.1,257.9z"/>
						<g>
							<polygon class="st4" points="509.6,298.4 572.2,298.4 540.9,259.9 							"/>
							<polygon class="st8" points="509.6,298.4 572.2,298.4 540.9,259.9 							"/>
						</g>
						<g>
							<polygon class="st4" points="478.8,298.5 534.3,298.5 506.6,273.4 							"/>
							<polygon class="st9" points="478.8,298.5 534.3,298.5 506.6,273.4 							"/>
						</g>
						<g>
							<rect x="478.8" y="298.4" class="st4" width="93.3" height="15.4"/>
							<rect x="478.8" y="298.4" class="st10" width="93.3" height="15.4"/>
						</g>
					</g>
					<g>
						<rect x="259.1" y="242.2" class="st2" width="70.1" height="5.9"/>
						<rect x="259.1" y="255.9" class="st2" width="202.9" height="5.9"/>
						<rect x="259.1" y="268.9" class="st2" width="202.9" height="5.9"/>
						<rect x="259.1" y="281.9" class="st2" width="202.9" height="5.9"/>
						<rect x="259.1" y="294.9" class="st2" width="202.9" height="5.9"/>
						<rect x="259.1" y="307.8" class="st2" width="202.9" height="5.9"/>
					</g>
					<g>
						<rect x="428.1" y="126.4" class="st2" width="70.1" height="15.8"/>
						<rect x="428.1" y="153.1" class="st2" width="144" height="5.9"/>
						<rect x="428.1" y="166.1" class="st2" width="144" height="5.9"/>
						<rect x="428.1" y="179.1" class="st2" width="144" height="5.9"/>
						<rect x="428.1" y="192" class="st2" width="144" height="5.9"/>
						<rect x="428.1" y="209.3" class="st2" width="144" height="5.9"/>
						<rect x="428.1" y="222.3" class="st2" width="144" height="5.9"/>
					</g>
					<g>
						<rect x="592.6" y="126.4" class="st11" width="128.2" height="16.1"/>
						<g>
							<g>
								<rect x="593" y="142.5" class="st12" width="127.5" height="171.1"/>
								<path class="st2" d="M720.9,313.9H592.6V142.2h128.2V313.9z M593.3,313.3h126.8V142.8H593.3V313.3z"/>
							</g>
							<polygon class="st2" points="593.3,313.7 592.6,313.5 720.2,142.4 720.8,142.6 							"/>
							<polygon class="st2" points="720.2,313.7 592.6,142.6 593.3,142.4 720.8,313.5 							"/>
						</g>
					</g>
					<g>
						<g>
							<rect x="259.4" y="126.7" class="st12" width="152.8" height="101.2"/>
							<path class="st2" d="M259.2,228.2l0-0.3l0-101.4l0.3,0l153.1,0l0,101.7l-0.3,0L259.2,228.2z M259.7,127l0,100.7l152.3,0
								l0-100.7L259.7,127z"/>
						</g>
						<path class="st2" d="M259.7,127c12.9,8.1,25.6,16.4,38.4,24.7l38.2,25l38,25.3l18.9,12.7l18.8,12.9l-19.2-12.3l-19.1-12.4
							l-38.2-25l-38-25.3C284.8,144.1,272.2,135.6,259.7,127z"/>
						<path class="st2" d="M412,127c-12.5,8.6-25.1,17.1-37.8,25.6l-38,25.3l-38.2,25l-19.1,12.4l-19.2,12.3l18.8-12.9l18.9-12.7
							l38-25.3l38.2-25C386.4,143.4,399.1,135.1,412,127z"/>
					</g>
				</g>
			</g>
		</g>
		<g>
			<g>
				<g>
					<g>
						<rect x="700.5" y="9.4" class="st5" width="124.1" height="79.2"/>
						<path class="st0" d="M825.4,89.4H699.8V8.7h125.7V89.4z M701.3,87.8h122.5V10.2H701.3V87.8z"/>
					</g>
					<g>
						<rect x="700.5" y="9.4" class="st3" width="124.1" height="15"/>
					</g>
				</g>
				<g>
					<path class="st4" d="M714.6,17c0,2.1-1.7,3.8-3.8,3.8c-2.1,0-3.8-1.7-3.8-3.8c0-2.1,1.7-3.8,3.8-3.8
						C712.9,13.3,714.6,15,714.6,17z"/>
					<path class="st0" d="M730,17c0,2.1-1.7,3.8-3.8,3.8c-2.1,0-3.8-1.7-3.8-3.8c0-2.1,1.7-3.8,3.8-3.8C728.3,13.3,730,15,730,17z"
						/>
					<path class="st5" d="M745.4,17c0,2.1-1.7,3.8-3.8,3.8c-2.1,0-3.8-1.7-3.8-3.8c0-2.1,1.7-3.8,3.8-3.8
						C743.7,13.3,745.4,15,745.4,17z"/>
				</g>
				<g>
					<path class="st0" d="M722,54c0-8.3,7-15,15.3-15c3.7,0,7,1.2,9.6,3.3c1,0.8,1.2,2.3,0.4,3.3c-0.8,1-2.4,1.2-3.3,0.5
						c-1.8-1.5-4.1-2.3-6.7-2.3c-2.9,0-5.5,1.2-7.5,3c-1.9,1.9-3,4.4-3,7.3c0,2.8,1.2,5.4,3,7.3c2,1.8,4.6,3,7.5,3
						c2.6,0,4.8-0.8,6.7-2.3c1-0.7,2.5-0.5,3.3,0.5c0.8,1,0.6,2.5-0.4,3.3c-2.6,2-6,3.3-9.6,3.3C728.9,69,722,62.3,722,54z"/>
					<path class="st0" d="M754.5,61.8c0.8-0.9,2.1-1,3-0.3c1.8,1.5,5,3.3,8,3.2c2.1,0,4-0.6,5.2-1.5c1.3-0.9,1.8-2,1.8-3
						c0-0.5-0.1-0.9-0.4-1.3c-0.2-0.4-0.6-0.8-1.3-1.3c-1.2-0.8-3.3-1.5-5.7-2h-0.1c-2-0.4-3.8-0.9-5.4-1.6c-1.6-0.8-3-1.8-3.9-3.3
						c-0.6-1-1-2.2-1-3.4c0-2.5,1.4-4.7,3.3-6.1c2-1.4,4.5-2.2,7.2-2.2c4,0,7,2,9.1,3.3c1,0.7,1.3,2,0.6,3c-0.6,1-2,1.3-3,0.6
						c-2.1-1.4-4.2-2.7-6.7-2.7c-1.9,0-3.5,0.6-4.7,1.4c-1.1,0.8-1.6,1.8-1.6,2.6c0,0.5,0.1,0.8,0.3,1.2c0.2,0.3,0.6,0.7,1.1,1.1
						c1.1,0.8,3,1.4,5.2,1.8h0.1c2.1,0.4,4.1,1,5.8,1.8c1.7,0.8,3.2,1.9,4.2,3.5c0.6,1,1,2.3,1,3.5c0,2.7-1.5,5-3.6,6.5
						c-2,1.5-4.8,2.4-7.7,2.4c-4.5,0-8.3-2.3-10.7-4.2C753.9,64.1,753.8,62.7,754.5,61.8z"/>
					<path class="st0" d="M781.9,61.8c0.8-0.9,2.1-1,3-0.3c1.8,1.5,5,3.3,8,3.2c2.1,0,4-0.6,5.2-1.5c1.3-0.9,1.8-2,1.8-3
						c0-0.5-0.1-0.9-0.4-1.3c-0.2-0.4-0.6-0.8-1.3-1.3c-1.2-0.8-3.3-1.5-5.7-2h-0.1c-2-0.4-3.8-0.9-5.4-1.6c-1.6-0.8-3-1.8-3.9-3.3
						c-0.6-1-1-2.2-1-3.4c0-2.5,1.4-4.7,3.3-6.1c2-1.4,4.5-2.2,7.2-2.2c4,0,7,2,9.1,3.3c1,0.7,1.3,2,0.6,3c-0.6,1-2,1.3-3,0.6
						c-2.1-1.4-4.2-2.7-6.7-2.7c-1.9,0-3.5,0.6-4.7,1.4c-1.1,0.8-1.6,1.8-1.6,2.6c0,0.5,0.1,0.8,0.3,1.2c0.2,0.3,0.6,0.7,1.1,1.1
						c1.1,0.8,3,1.4,5.2,1.8h0.1c2.1,0.4,4.1,1,5.8,1.8c1.7,0.8,3.2,1.9,4.2,3.5c0.6,1,1,2.3,1,3.5c0,2.7-1.5,5-3.6,6.5
						c-2,1.5-4.8,2.4-7.7,2.4c-4.5,0-8.3-2.3-10.7-4.2C781.3,64.1,781.2,62.7,781.9,61.8z"/>
				</g>
			</g>
			<g>
				<rect x="774.5" y="118.5" class="st3" width="69.7" height="31.3"/>
			</g>
			<g class="st13">
				<g>
					<g>
						<rect x="521.1" y="257.7" class="st14" width="207" height="145"/>
						<path class="st0" d="M728.9,403.5H520.3V256.9h208.6V403.5z M521.9,401.9h205.4V258.5H521.9V401.9z"/>
					</g>
					<g>
						<rect x="521.1" y="257.7" class="st3" width="207" height="15"/>
						<path class="st0" d="M728.9,273.4H520.3v-16.5h208.6V273.4z M521.9,271.9h205.4v-13.4H521.9V271.9z"/>
					</g>
				</g>
				<g>
					<path class="st4" d="M535.2,265.3c0,2.1-1.7,3.8-3.8,3.8c-2.1,0-3.8-1.7-3.8-3.8c0-2.1,1.7-3.8,3.8-3.8
						C533.5,261.5,535.2,263.2,535.2,265.3z"/>
					<path class="st0" d="M550.6,265.3c0,2.1-1.7,3.8-3.8,3.8c-2.1,0-3.8-1.7-3.8-3.8c0-2.1,1.7-3.8,3.8-3.8
						C548.9,261.5,550.6,263.2,550.6,265.3z"/>
					<path class="st5" d="M565.9,265.3c0,2.1-1.7,3.8-3.8,3.8c-2.1,0-3.8-1.7-3.8-3.8c0-2.1,1.7-3.8,3.8-3.8
						C564.3,261.5,565.9,263.2,565.9,265.3z"/>
				</g>
				<g>
					<rect x="537.2" y="302.4" class="st0" width="8" height="2.9"/>
					<rect x="551" y="302.4" class="st0" width="91.8" height="2.9"/>
					<rect x="647.8" y="302.4" class="st4" width="15.2" height="2.9"/>
					<rect x="666.3" y="302.4" class="st15" width="26.3" height="2.9"/>
					<rect x="545.2" y="310.3" class="st0" width="8" height="2.9"/>
					<rect x="558.8" y="310.3" class="st15" width="60.3" height="2.9"/>
					<rect x="551" y="333.7" class="st15" width="57.6" height="2.9"/>
					<rect x="558.8" y="318.1" class="st4" width="40.4" height="2.9"/>
					<rect x="657.9" y="325.9" class="st15" width="15.4" height="2.9"/>
					<rect x="603.7" y="318.1" class="st15" width="64.5" height="2.9"/>
					<rect x="551" y="341.6" class="st4" width="77" height="2.9"/>
					<rect x="664.6" y="310.3" class="st4" width="41.7" height="2.9"/>
					<rect x="622.9" y="310.3" class="st0" width="38.4" height="2.9"/>
					<rect x="671.2" y="318.1" class="st0" width="25.9" height="2.9"/>
					<rect x="545.2" y="318.1" class="st0" width="8" height="2.9"/>
					<rect x="537.2" y="325.9" class="st15" width="8" height="2.9"/>
					<rect x="551" y="325.9" class="st0" width="47.3" height="2.9"/>
					<rect x="611.8" y="333.7" class="st0" width="51.1" height="2.9"/>
					<rect x="666.3" y="333.7" class="st4" width="32.5" height="2.9"/>
					<rect x="603.1" y="325.9" class="st4" width="51.1" height="2.9"/>
					<rect x="537.2" y="333.7" class="st0" width="8" height="2.9"/>
					<rect x="537.2" y="341.6" class="st0" width="8" height="2.9"/>
					<g>
						<path class="st4" d="M542.1,294.7c0.3,0.3,0.3,0.7,0,1c-0.1,0.1-0.3,0.2-0.5,0.2c-0.2,0-0.4-0.1-0.5-0.2l-3.1-3.1
							c0,0,0,0-0.1-0.1c0,0,0,0,0,0c0,0,0-0.1,0-0.1c0,0,0,0,0,0c0,0,0-0.1,0-0.1c0,0,0,0,0-0.1c0,0,0-0.1,0-0.1c0,0,0,0,0-0.1
							c0,0,0,0,0-0.1c0,0,0-0.1,0-0.1c0,0,0,0,0,0c0,0,0-0.1,0-0.1c0,0,0,0,0,0c0,0,0-0.1,0.1-0.1c0,0,0,0,0,0c0,0,0-0.1,0.1-0.1
							l3.1-3.1c0.3-0.3,0.7-0.3,1,0c0.3,0.3,0.3,0.7,0,1l-2.6,2.6L542.1,294.7z"/>
						<path class="st4" d="M544.9,295.1l2.7-6.4c0.1-0.3,0.5-0.5,0.8-0.3c0.3,0.1,0.4,0.5,0.3,0.8l-2.7,6.4
							c-0.1,0.2-0.3,0.4-0.6,0.4c-0.1,0-0.2,0-0.2,0C544.9,295.8,544.8,295.4,544.9,295.1z"/>
						<path class="st4" d="M554,292.5C554,292.5,554,292.5,554,292.5C554,292.5,554,292.6,554,292.5l-3.2,3.2
							c-0.1,0.1-0.3,0.2-0.5,0.2c-0.2,0-0.4-0.1-0.5-0.2c-0.3-0.3-0.3-0.7,0-1l2.6-2.6l-2.6-2.6c-0.3-0.3-0.3-0.7,0-1
							c0.3-0.3,0.7-0.3,1,0l3.1,3.1c0,0,0.1,0.1,0.1,0.1c0,0,0,0,0,0c0,0,0,0.1,0.1,0.1c0,0,0,0,0,0c0,0,0,0.1,0,0.1c0,0,0,0,0,0
							c0,0,0,0.1,0,0.1c0,0,0,0,0,0.1c0,0,0,0,0,0.1c0,0,0,0.1,0,0.1c0,0,0,0,0,0c0,0,0,0.1,0,0.1
							C554.1,292.4,554.1,292.4,554,292.5C554.1,292.4,554.1,292.5,554,292.5z"/>
					</g>
				</g>
			</g>
			<g>
				<rect x="189.6" y="263.5" class="st16" width="84.6" height="31.3"/>
				<g>
					<path class="st5" d="M201.8,285.7v-13.9c0-0.7,0.6-1.3,1.3-1.3c0.7,0,1.3,0.6,1.3,1.3v5.6h6.1v-5.6c0-0.7,0.6-1.3,1.3-1.3
						c0.7,0,1.3,0.6,1.3,1.3v13.9c0,0.7-0.6,1.3-1.3,1.3c-0.7,0-1.3-0.6-1.3-1.3V280h-6.1v5.6c0,0.7-0.6,1.3-1.3,1.3
						C202.4,286.9,201.8,286.4,201.8,285.7z"/>
					<path class="st5" d="M228.6,273.1h-3.7v12.6c0,0.7-0.6,1.3-1.3,1.3c-0.7,0-1.3-0.6-1.3-1.3v-12.6h-3.7c-0.7,0-1.3-0.6-1.3-1.3
						c0-0.7,0.6-1.3,1.3-1.3h10c0.7,0,1.3,0.6,1.3,1.3C229.9,272.5,229.3,273.1,228.6,273.1z"/>
					<path class="st5" d="M247.9,271.8v13.9c0,0.7-0.6,1.3-1.3,1.3c-0.7,0-1.3-0.6-1.3-1.3v-9.9l-3.4,4.7c-0.3,0.4-0.6,0.5-1.1,0.5
						h0h0c-0.4,0-0.8-0.2-1.1-0.5l-3.4-4.7v9.9c0,0.7-0.6,1.3-1.3,1.3c-0.7,0-1.3-0.6-1.3-1.3v-13.9c0-0.7,0.6-1.3,1.3-1.3
						c0,0,0,0,0.1,0c0.4,0,0.8,0.2,1,0.5l4.7,6.5l4.7-6.5c0.3-0.4,0.6-0.5,1.1-0.5c0,0,0,0,0,0C247.3,270.5,247.9,271.1,247.9,271.8
						z"/>
					<path class="st5" d="M253.6,285.7v-13.9c0-0.7,0.6-1.3,1.3-1.3c0.7,0,1.3,0.6,1.3,1.3v12.6h6.4c0.7,0,1.3,0.6,1.3,1.3
						c0,0.7-0.6,1.3-1.3,1.3H255c0,0,0,0,0,0c0,0,0,0,0,0C254.2,286.9,253.6,286.4,253.6,285.7z"/>
				</g>
			</g>
			<g>
				<rect x="818.3" y="226.6" class="st16" width="47.2" height="31.3"/>
				<g>
					<path class="st5" d="M831.1,245.3c0.4,1.3,1.6,2.2,3,2.2c1.7,0,3.1-1.4,3.1-3.1v-9c0-0.7,0.6-1.3,1.3-1.3
						c0.7,0,1.3,0.5,1.3,1.3v9c0,3.1-2.6,5.7-5.7,5.7c-2.5,0-4.6-1.6-5.4-3.9c-0.2-0.7,0.2-1.4,0.8-1.6
						C830.2,244.3,830.9,244.6,831.1,245.3z"/>
					<path class="st5" d="M842.9,246c0.4-0.5,1.2-0.6,1.7-0.2c1,0.8,2.7,1.8,4.4,1.8c1.1,0,2.2-0.3,2.8-0.8c0.7-0.5,1-1.1,1-1.6
						c0-0.3-0.1-0.5-0.2-0.7c-0.1-0.2-0.3-0.5-0.7-0.7c-0.7-0.4-1.8-0.8-3.1-1.1h0c-1.1-0.2-2.1-0.5-2.9-0.9c-0.9-0.4-1.6-1-2.1-1.8
						c-0.3-0.5-0.5-1.2-0.5-1.9c0-1.4,0.8-2.6,1.8-3.3c1.1-0.8,2.5-1.2,3.9-1.2c2.2,0,3.8,1.1,5,1.8c0.5,0.4,0.7,1.1,0.3,1.6
						c-0.3,0.5-1.1,0.7-1.6,0.3c-1.2-0.8-2.3-1.5-3.7-1.5c-1,0-1.9,0.3-2.6,0.8c-0.6,0.5-0.9,1-0.9,1.4c0,0.3,0,0.5,0.2,0.6
						c0.1,0.2,0.3,0.4,0.6,0.6c0.6,0.4,1.6,0.8,2.8,1h0c1.2,0.2,2.2,0.5,3.1,1c0.9,0.5,1.8,1,2.3,1.9c0.3,0.5,0.5,1.2,0.5,1.9
						c0,1.5-0.8,2.7-2,3.5c-1.1,0.8-2.6,1.3-4.2,1.3c-2.5,0-4.5-1.3-5.8-2.3C842.6,247.3,842.5,246.5,842.9,246z"/>
				</g>
			</g>
			<g>
				<g>
					<g>
						<rect x="100.3" y="41" class="st5" width="124.1" height="79.2"/>
						<path class="st0" d="M225.2,120.9H99.5V40.2h125.7V120.9z M101.1,119.4h122.5V41.8H101.1V119.4z"/>
					</g>
					<g>
						<rect x="100.3" y="41" class="st3" width="124.1" height="15"/>
						<path class="st0" d="M225.2,56.7H99.5V40.2h125.7V56.7z M101.1,55.2h122.5V41.8H101.1V55.2z"/>
					</g>
				</g>
				<g>
					<path class="st4" d="M114.4,48.6c0,2.1-1.7,3.8-3.8,3.8c-2.1,0-3.8-1.7-3.8-3.8c0-2.1,1.7-3.8,3.8-3.8
						C112.7,44.8,114.4,46.5,114.4,48.6z"/>
					<path class="st0" d="M129.8,48.6c0,2.1-1.7,3.8-3.8,3.8c-2.1,0-3.8-1.7-3.8-3.8c0-2.1,1.7-3.8,3.8-3.8
						C128.1,44.8,129.8,46.5,129.8,48.6z"/>
					<path class="st5" d="M145.1,48.6c0,2.1-1.7,3.8-3.8,3.8c-2.1,0-3.8-1.7-3.8-3.8c0-2.1,1.7-3.8,3.8-3.8
						C143.5,44.8,145.1,46.5,145.1,48.6z"/>
				</g>
			</g>
		</g>
		<g>
			<g>
				<g>
					
						<rect x="157.9" y="194.7" transform="matrix(0.6861 -0.7275 0.7275 0.6861 -88.497 187.2056)" class="st1" width="29.6" height="2.9"/>
					<rect x="162.5" y="206.4" class="st3" width="20.8" height="2.9"/>
					<rect x="162.5" y="183.9" class="st3" width="20.8" height="2.9"/>
					
						<rect x="171.2" y="181.3" transform="matrix(0.7277 -0.6859 0.6859 0.7277 -87.5178 171.847)" class="st3" width="2.9" height="29.6"/>
				</g>
				<g>
					
						<rect x="157.9" y="217.2" transform="matrix(0.6861 -0.7275 0.7275 0.6861 -104.8453 194.2512)" class="st1" width="29.6" height="2.9"/>
					<rect x="162.5" y="228.9" class="st3" width="20.8" height="2.9"/>
					<rect x="162.5" y="206.4" class="st3" width="20.8" height="2.9"/>
					
						<rect x="171.2" y="203.8" transform="matrix(0.7277 -0.6859 0.6859 0.7277 -102.9309 177.9652)" class="st3" width="2.9" height="29.6"/>
				</g>
				<g>
					
						<rect x="157.9" y="239.6" transform="matrix(0.6861 -0.7275 0.7275 0.6861 -121.1953 201.3152)" class="st1" width="29.6" height="2.9"/>
					<rect x="162.5" y="251.3" class="st3" width="20.8" height="2.9"/>
					<rect x="162.5" y="228.9" class="st3" width="20.8" height="2.9"/>
					
						<rect x="171.2" y="226.3" transform="matrix(0.7277 -0.6859 0.6859 0.7277 -118.3443 184.0852)" class="st3" width="2.9" height="29.6"/>
				</g>
				<g>
					
						<rect x="157.9" y="262.1" transform="matrix(0.6861 -0.7275 0.7275 0.6861 -137.5426 208.3597)" class="st1" width="29.6" height="2.9"/>
					<rect x="162.5" y="273.8" class="st3" width="20.8" height="2.9"/>
					<rect x="162.5" y="251.3" class="st3" width="20.8" height="2.9"/>
					
						<rect x="171.2" y="248.7" transform="matrix(0.7277 -0.6859 0.6859 0.7277 -133.7573 190.2034)" class="st3" width="2.9" height="29.6"/>
				</g>
				<g>
					
						<rect x="157.9" y="284.6" transform="matrix(0.6861 -0.7275 0.7275 0.6861 -153.8935 215.4248)" class="st1" width="29.6" height="2.9"/>
					<rect x="162.5" y="296.3" class="st3" width="20.8" height="2.9"/>
					<rect x="162.5" y="273.8" class="st3" width="20.8" height="2.9"/>
					
						<rect x="171.2" y="271.2" transform="matrix(0.7277 -0.6859 0.6859 0.7277 -149.1705 196.3224)" class="st3" width="2.9" height="29.6"/>
				</g>
				<g>
					
						<rect x="157.9" y="307.1" transform="matrix(0.6861 -0.7275 0.7275 0.6861 -170.2427 222.4796)" class="st1" width="29.6" height="2.9"/>
					<rect x="162.5" y="318.7" class="st3" width="20.8" height="2.9"/>
					<rect x="162.5" y="296.3" class="st3" width="20.8" height="2.9"/>
					
						<rect x="171.2" y="293.7" transform="matrix(0.7277 -0.6859 0.6859 0.7277 -164.584 202.4425)" class="st3" width="2.9" height="29.6"/>
				</g>
				<g>
					
						<rect x="157.9" y="329.5" transform="matrix(0.6861 -0.7275 0.7275 0.6861 -186.5918 229.5344)" class="st1" width="29.6" height="2.9"/>
					<rect x="162.5" y="341.2" class="st3" width="20.8" height="2.9"/>
					<rect x="162.5" y="318.7" class="st3" width="20.8" height="2.9"/>
					
						<rect x="171.2" y="316.2" transform="matrix(0.7277 -0.6859 0.6859 0.7277 -179.9969 208.5606)" class="st3" width="2.9" height="29.6"/>
				</g>
				<g>
					
						<rect x="157.9" y="352" transform="matrix(0.6861 -0.7275 0.7275 0.6861 -202.937 236.5767)" class="st1" width="29.6" height="2.9"/>
					<rect x="162.5" y="363.7" class="st3" width="20.8" height="2.9"/>
					<rect x="162.5" y="341.2" class="st3" width="20.8" height="2.9"/>
					
						<rect x="171.2" y="338.6" transform="matrix(0.7277 -0.6859 0.6859 0.7277 -195.4101 214.6796)" class="st3" width="2.9" height="29.6"/>
				</g>
				<g>
					
						<rect x="157.9" y="374.5" transform="matrix(0.6861 -0.7275 0.7275 0.6861 -219.2812 243.6179)" class="st1" width="29.6" height="2.9"/>
					<rect x="162.5" y="386.2" class="st3" width="20.8" height="2.9"/>
					<rect x="162.5" y="363.7" class="st3" width="20.8" height="2.9"/>
					
						<rect x="171.2" y="361.1" transform="matrix(0.7277 -0.6859 0.6859 0.7277 -210.8228 220.7975)" class="st3" width="2.9" height="29.6"/>
				</g>
				<g>
					
						<rect x="157.9" y="396.9" transform="matrix(0.6858 -0.7278 0.7278 0.6858 -235.6885 250.8352)" class="st1" width="29.6" height="2.9"/>
					<rect x="162.5" y="408.6" class="st3" width="20.8" height="2.9"/>
					<rect x="162.5" y="386.2" class="st3" width="20.8" height="2.9"/>
					
						<rect x="171.2" y="383.6" transform="matrix(0.7277 -0.6859 0.6859 0.7277 -226.2396 226.9251)" class="st3" width="2.9" height="29.6"/>
				</g>
				<g>
					
						<rect x="157.9" y="419.4" transform="matrix(0.6858 -0.7278 0.7278 0.6858 -252.0428 257.8955)" class="st1" width="29.6" height="2.9"/>
					<rect x="162.5" y="431.1" class="st3" width="20.8" height="2.9"/>
					<rect x="162.5" y="408.6" class="st3" width="20.8" height="2.9"/>
					
						<rect x="171.2" y="406" transform="matrix(0.7277 -0.6859 0.6859 0.7277 -241.6497 233.0368)" class="st3" width="2.9" height="29.6"/>
				</g>
				
					<rect x="165.9" y="422.3" transform="matrix(-1.836970e-16 1 -1 -1.836970e-16 609.8287 264.8608)" class="st3" width="13.1" height="30"/>
				
					<rect x="38" y="304.6" transform="matrix(-1.836970e-16 1 -1 -1.836970e-16 469.5873 147.132)" class="st3" width="246.5" height="7.5"/>
				
					<rect x="60.5" y="304.6" transform="matrix(-1.836970e-16 1 -1 -1.836970e-16 492.0999 124.6194)" class="st3" width="246.5" height="7.5"/>
			</g>
			<g>
				<polygon class="st3" points="385.4,183.3 362.9,161.2 173,125.8 115.2,161.3 113.7,158.9 172.4,122.7 364.3,158.5 387.4,181.3 
									"/>
				<polygon class="st1" points="195.9,164.3 172.7,132.1 150.6,164.2 145.8,160.9 172.6,122.1 200.5,160.9 				"/>
				<g>
					
						<rect x="350" y="160.1" transform="matrix(0.6859 -0.7277 0.7277 0.6859 -16.8947 310.7177)" class="st1" width="2.9" height="29.6"/>
					<rect x="361.7" y="164.3" class="st3" width="2.9" height="20.8"/>
					<rect x="339.3" y="164.3" class="st3" width="2.9" height="20.8"/>
					
						<rect x="336.7" y="173.5" transform="matrix(0.7276 -0.686 0.686 0.7276 -24.2526 288.7861)" class="st3" width="29.6" height="2.9"/>
				</g>
				<g>
					
						<rect x="327.6" y="160.1" transform="matrix(0.6859 -0.7277 0.7277 0.6859 -23.953 294.3652)" class="st1" width="2.9" height="29.6"/>
					<rect x="339.3" y="164.3" class="st3" width="2.9" height="20.8"/>
					<rect x="316.8" y="164.3" class="st3" width="2.9" height="20.8"/>
					
						<rect x="314.2" y="173.5" transform="matrix(0.7276 -0.686 0.686 0.7276 -30.3743 273.3707)" class="st3" width="29.6" height="2.9"/>
				</g>
				<g>
					
						<rect x="305.1" y="160.1" transform="matrix(0.6859 -0.7277 0.7277 0.6859 -31.0109 278.0139)" class="st1" width="2.9" height="29.6"/>
					<rect x="316.8" y="164.3" class="st3" width="2.9" height="20.8"/>
					<rect x="294.3" y="164.3" class="st3" width="2.9" height="20.8"/>
					
						<rect x="291.7" y="173.5" transform="matrix(0.7276 -0.686 0.686 0.7276 -36.4964 257.9537)" class="st3" width="29.6" height="2.9"/>
				</g>
				<g>
					
						<rect x="282.6" y="160.1" transform="matrix(0.6859 -0.7277 0.7277 0.6859 -38.0694 261.6605)" class="st1" width="2.9" height="29.6"/>
					<rect x="294.3" y="164.3" class="st3" width="2.9" height="20.8"/>
					<rect x="271.8" y="164.3" class="st3" width="2.9" height="20.8"/>
					
						<rect x="269.3" y="173.5" transform="matrix(0.7276 -0.686 0.686 0.7276 -42.6183 242.5375)" class="st3" width="29.6" height="2.9"/>
				</g>
				<g>
					
						<rect x="260.2" y="160.1" transform="matrix(0.6859 -0.7277 0.7277 0.6859 -45.1274 245.3091)" class="st1" width="2.9" height="29.6"/>
					<rect x="271.8" y="164.3" class="st3" width="2.9" height="20.8"/>
					<rect x="249.4" y="164.3" class="st3" width="2.9" height="20.8"/>
					
						<rect x="246.8" y="173.5" transform="matrix(0.7275 -0.6861 0.6861 0.7275 -48.7384 227.1317)" class="st3" width="29.6" height="2.9"/>
				</g>
				<g>
					
						<rect x="237.7" y="160.1" transform="matrix(0.6859 -0.7277 0.7277 0.6859 -52.1859 228.9558)" class="st1" width="2.9" height="29.6"/>
					<rect x="249.4" y="164.3" class="st3" width="2.9" height="20.8"/>
					<rect x="226.9" y="164.3" class="st3" width="2.9" height="20.8"/>
					
						<rect x="224.3" y="173.5" transform="matrix(0.7276 -0.686 0.686 0.7276 -54.8621 211.7051)" class="st3" width="29.6" height="2.9"/>
				</g>
				<g>
					
						<rect x="215.2" y="160.1" transform="matrix(0.6859 -0.7277 0.7277 0.6859 -59.244 212.6043)" class="st1" width="2.9" height="29.6"/>
					<rect x="226.9" y="164.3" class="st3" width="2.9" height="20.8"/>
					<rect x="204.4" y="164.3" class="st3" width="2.9" height="20.8"/>
					
						<rect x="201.8" y="173.5" transform="matrix(0.7275 -0.6861 0.6861 0.7275 -60.9833 196.2978)" class="st3" width="29.6" height="2.9"/>
				</g>
				<g>
					
						<rect x="192.7" y="160.1" transform="matrix(0.6859 -0.7277 0.7277 0.6859 -66.3023 196.2511)" class="st1" width="2.9" height="29.6"/>
					<rect x="204.4" y="164.3" class="st3" width="2.9" height="20.8"/>
					<rect x="182" y="164.3" class="st3" width="2.9" height="20.8"/>
					
						<rect x="179.4" y="173.5" transform="matrix(0.7276 -0.686 0.686 0.7276 -67.1059 180.8727)" class="st3" width="29.6" height="2.9"/>
				</g>
				<g>
					
						<rect x="170.3" y="160.1" transform="matrix(0.6859 -0.7277 0.7277 0.6859 -73.3606 179.8987)" class="st1" width="2.9" height="29.6"/>
					<rect x="182" y="164.3" class="st3" width="2.9" height="20.8"/>
					<rect x="159.5" y="164.3" class="st3" width="2.9" height="20.8"/>
					
						<rect x="156.9" y="173.5" transform="matrix(0.7276 -0.686 0.686 0.7276 -73.2278 165.4565)" class="st3" width="29.6" height="2.9"/>
				</g>
				<g>
					
						<rect x="147.8" y="160.1" transform="matrix(0.6859 -0.7277 0.7277 0.6859 -80.4188 163.5471)" class="st1" width="2.9" height="29.6"/>
					<rect x="159.5" y="164.3" class="st3" width="2.9" height="20.8"/>
					<rect x="137" y="164.3" class="st3" width="2.9" height="20.8"/>
					
						<rect x="134.4" y="173.5" transform="matrix(0.7276 -0.686 0.686 0.7276 -79.3497 150.0403)" class="st3" width="29.6" height="2.9"/>
				</g>
				<g>
					
						<rect x="125.3" y="160.1" transform="matrix(0.6859 -0.7277 0.7277 0.6859 -87.4771 147.1946)" class="st1" width="2.9" height="29.6"/>
					<rect x="137" y="164.3" class="st3" width="2.9" height="20.8"/>
					<rect x="114.5" y="164.3" class="st3" width="2.9" height="20.8"/>
					
						<rect x="111.9" y="173.5" transform="matrix(0.7275 -0.6861 0.6861 0.7275 -85.473 134.6311)" class="st3" width="29.6" height="2.9"/>
				</g>
				<rect x="100.6" y="158.8" class="st1" width="13.1" height="30"/>
				<rect x="113.7" y="158.8" class="st3" width="13.1" height="30"/>
				<rect x="119" y="188.9" class="st3" width="25.1" height="15"/>
				<rect x="113.7" y="181.3" class="st3" width="273.7" height="7.5"/>
				<polygon class="st3" points="371.8,166.3 113.7,166.3 113.7,158.8 364.4,158.8 				"/>
				<rect x="366.6" y="164.3" class="st3" width="2.9" height="20.8"/>
			</g>
			<g>
				<g>
					<path class="st1" d="M324.9,321.1c3.6-4.7,7.4-9.2,11.3-13.8c0,0,0.4-0.5,0.4-0.5l0.4,0.5c5.5,6.9,11.6,14.5,16.8,21.7
						c-5.9-6.6-12-14.2-17.6-21c0,0,0.8,0,0.8,0C333,312.4,329.1,316.9,324.9,321.1L324.9,321.1z"/>
				</g>
				<rect x="322.6" y="191.9" class="st1" width="2.9" height="90.2"/>
				<rect x="347" y="192.9" class="st1" width="2.9" height="90.2"/>
				<rect x="317.4" y="188.9" class="st3" width="38.1" height="6.1"/>
				<g>
					<path class="st1" d="M337.9,289.3l-0.3,6.4l-0.9-1.1c1.1,0.3,2,0.7,2.9,1.3c0.9,0.6,1.7,1.3,2.3,2.2c1.2,1.9,1,4.4-0.2,6.1
						c-1.1,1.8-3.2,2.7-5.2,2.7c-2-0.1-3.7-1.3-4.8-2.9c1.2,1.4,3,2.4,4.8,2.3c1.8-0.1,3.4-1.2,4.2-2.7c0.8-1.5,0.7-3.4-0.3-4.6
						c-0.9-1.2-2.7-2-4.2-2.2l-0.9-0.1l0-1l-0.3-6.4H337.9z"/>
					<polygon class="st3" points="355.5,276.2 355.5,286.6 336.5,291.2 317.4,286.6 317.4,276.2 					"/>
					<path class="st1" d="M326.2,282.3c0,1.2-1,2.2-2.2,2.2s-2.2-1-2.2-2.2c0-1.2,1-2.2,2.2-2.2S326.2,281.1,326.2,282.3z"/>
					<path class="st1" d="M351.2,282.3c0,1.2-1,2.2-2.2,2.2c-1.2,0-2.2-1-2.2-2.2c0-1.2,1-2.2,2.2-2.2
						C350.2,280.1,351.2,281.1,351.2,282.3z"/>
				</g>
			</g>
			<path class="st15" d="M177.5,124.2c0,2.7-2.2,4.9-4.9,4.9c-2.7,0-4.9-2.2-4.9-4.9s2.2-4.9,4.9-4.9
				C175.4,119.4,177.5,121.6,177.5,124.2z"/>
			<path class="st3" d="M174.9,124.2c0,1.3-1,2.3-2.3,2.3c-1.3,0-2.3-1-2.3-2.3c0-1.3,1-2.3,2.3-2.3
				C173.9,122,174.9,123,174.9,124.2z"/>
			<rect x="151.5" y="443.9" class="st1" width="42.1" height="9.9"/>
			<rect x="142.3" y="453.8" class="st3" width="60.3" height="19.5"/>
			<g>
				<path class="st16" d="M196.9,206.2h-45v-49.8h29.4c5.1,0,9.5,3.8,10.2,8.9L196.9,206.2z"/>
				<g>
					<path class="st1" d="M184.7,191.1h-21.1c-0.2,0-0.5,0-0.7-0.1c-1-0.3-1.7-1.2-1.7-2.3v-26.6h15c0.5,0,1,0,1.5,0.1
						c1.2,0.2,2.2,0.6,3.1,1.3c0.7,0.4,1.3,1,1.7,1.6c1,1.2,1.7,2.6,1.9,4.3l2.5,19C187.2,189.8,186.1,191.1,184.7,191.1z"/>
					<g class="st17">
						<path class="st5" d="M182.4,177.2c0,0.6-0.2,1.2-0.7,1.7l-12.2,12.2h-5.9c-0.2,0-0.5,0-0.7-0.1l15.5-15.5
							c0.9-0.9,2.4-0.9,3.3,0C182.2,176,182.4,176.6,182.4,177.2z"/>
						<path class="st5" d="M182.6,165.1l-21.4,21.4v-3.3l19.7-19.7C181.5,164,182.1,164.5,182.6,165.1z"/>
						<path class="st5" d="M177.7,162.3l-12.2,12.2c-0.7,0.7-1.8,0.7-2.5,0c-0.3-0.3-0.5-0.8-0.5-1.3c0-0.4,0.2-0.9,0.5-1.2l9.8-9.8
							h3.4C176.7,162.1,177.2,162.1,177.7,162.3z"/>
					</g>
				</g>
			</g>
			<g>
				<g>
					
						<rect x="268.8" y="324.6" transform="matrix(0.96 0.2799 -0.2799 0.96 115.8149 -78.2642)" class="st6" width="126.2" height="83.6"/>
					<path class="st2" d="M259.4,389l0.1-0.2l23.5-80.5l0.2,0.1l121.4,35.4L381,424.5l-0.2-0.1L259.4,389z M283.2,308.9l-23.3,79.8
						l120.8,35.2l23.3-79.8L283.2,308.9z"/>
				</g>
				<g>
					<path class="st16" d="M345.7,370.4c-2.2,7.6-10.2,12-17.8,9.7c-7.6-2.2-12-10.2-9.7-17.8c2.2-7.6,10.2-12,17.8-9.7
						C343.6,354.9,347.9,362.8,345.7,370.4z"/>
					<polygon class="st5" points="324.5,370.5 327.8,358.9 340.7,369 					"/>
				</g>
				<g>
					
						<rect x="258.1" y="400.1" transform="matrix(0.96 0.2799 -0.2799 0.96 125.7365 -73.7678)" class="st0" width="126.2" height="6.5"/>
					
						<rect x="265.8" y="401.8" transform="matrix(0.96 0.2799 -0.2799 0.96 125.4629 -73.1643)" class="st18" width="106.2" height="1.9"/>
					<g>
						
							<rect x="261.6" y="384.6" transform="matrix(0.96 0.2799 -0.2799 0.96 118.7441 -58.3408)" class="st18" width="4.1" height="4.1"/>
						<g>
							
								<rect x="262.6" y="385.1" transform="matrix(0.96 0.2799 -0.2799 0.96 118.659 -58.1583)" class="st15" width="0.8" height="2.7"/>
							
								<rect x="263.9" y="385.5" transform="matrix(0.96 0.28 -0.28 0.96 118.8961 -58.5451)" class="st15" width="0.8" height="2.7"/>
						</g>
					</g>
					<g>
						
							<rect x="371.5" y="416.6" transform="matrix(0.96 0.2799 -0.2799 0.96 132.099 -87.8101)" class="st18" width="4.1" height="4.1"/>
						<g>
							<g>
								
									<rect x="372.1" y="417.9" transform="matrix(0.96 0.2799 -0.2799 0.96 131.9947 -87.5498)" class="st15" width="0.8" height="1"/>
								<polygon class="st15" points="373.5,419.8 372.5,418.9 372.8,417.9 374.1,417.6 								"/>
							</g>
							<g id="u5Zjqx_1_">
								<g>
									<path class="st15" d="M374.6,418.2c0.1,0,0.2-0.1,0.2-0.1c0.1,0.3,0.2,0.5,0.2,0.8c-0.1,0.4-0.3,0.8-0.7,1
										c0-0.1-0.1-0.2-0.1-0.2c0.3-0.1,0.4-0.4,0.5-0.6C374.7,418.7,374.7,418.4,374.6,418.2z"/>
									<path class="st15" d="M374,419.4c0-0.1-0.1-0.2-0.1-0.2c0.1-0.1,0.2-0.2,0.3-0.3c0-0.1,0-0.3,0-0.4c0.1,0,0.2-0.1,0.2-0.1
										C374.6,418.7,374.4,419.2,374,419.4z"/>
								</g>
							</g>
						</g>
					</g>
					<g>
						
							<rect x="376.2" y="418" transform="matrix(0.96 0.2799 -0.2799 0.96 132.669 -89.0758)" class="st18" width="4.1" height="4.1"/>
						
							<rect x="377" y="418.5" transform="matrix(0.96 0.2799 -0.2799 0.96 132.4601 -88.9959)" class="st15" width="1.7" height="1.7"/>
						
							<rect x="377.8" y="419.9" transform="matrix(0.96 0.2798 -0.2798 0.96 132.8831 -89.144)" class="st5" width="1.7" height="1.7"/>
					</g>
					<g>
						<path class="st15" d="M287,393.4c-0.1,0.3-0.1,0.7-0.1,1l-19.3-5.6l0.5-1.9l19.3,5.6C287.3,392.8,287.1,393.1,287,393.4z"/>
						<path class="st15" d="M291.3,394.7c-0.1,0.3-0.3,0.6-0.5,0.9c-0.6,0.6-1.4,0.9-2.3,0.6c-0.8-0.2-1.4-0.9-1.6-1.7
							c-0.1-0.3,0-0.7,0.1-1c0.1-0.3,0.3-0.6,0.5-0.9c0.5-0.6,1.4-0.9,2.2-0.6c0.8,0.2,1.4,0.9,1.6,1.7
							C291.4,394,291.4,394.3,291.3,394.7z"/>
					</g>
				</g>
			</g>
		</g>
		<g>
			<g>
				<g>
					<g>
						<g>
							<path class="st19" d="M622.2,479.3c0.8-2.4,43.9-56.8,46.8-57.9c0.3-0.1,18.8,13.6,18.8,13.6c0.8,1,36.5-5.7,36.5-5.7
								l-0.5,43l-64.8-2.7c0,0-8.9,5-17,9c0,0,0,0,0,0c-5,2.5-9.4,4.6-10.6,4.9C628,484.2,621.4,481.6,622.2,479.3z"/>
							<path class="st5" d="M631.3,483.4c1.3-0.3,5.7-2.4,10.6-4.9c0,0,0,0,0,0c8.1-4,17-9,17-9l14.4,0.6l23.4-36
								c-5,0.8-8.7,1.2-8.9,0.9c0,0-18.4-13.7-18.8-13.6c-2.9,1-45.9,55.5-46.8,57.8C621.4,481.6,628,484.2,631.3,483.4z"/>
							<g>
								<path class="st12" d="M621.8,479.3c0.9-2.4,44.1-56.9,47.1-57.9c1.1-0.4,10.2,5.5,18.9,13.6l-27.9,35.1
									c0,0-25.4,12.8-28.7,13.5C627.8,484.4,621,481.7,621.8,479.3z"/>
								<g>
									<g>
										<path class="st1" d="M624.6,480.3c7.5-9,36.8-45.8,43.5-55.2c0.1-0.1,0-0.1-0.1,0c-7.6,8.7-36.6,45.8-43.6,55.1
											C624.3,480.4,624.5,480.5,624.6,480.3z"/>
										<path class="st1" d="M635.9,481.7c1.8-2.1,2.5-5,2.1-7.2c-0.3-2.1-1.3-4.5-3.3-5.9c-0.1,0-0.1,0.1-0.1,0.1
											c3.2,3.4,3.7,9.1,1.1,12.9C635.7,481.7,635.8,481.8,635.9,481.7z"/>
										<path class="st1" d="M656.7,472.2c3-3.6,5-8.9,3.8-13.5c0-0.2-0.3-0.1-0.3,0c-0.9,4.7-2.1,8.8-4,13.2
											C656,472.2,656.5,472.5,656.7,472.2z"/>
										<path class="st1" d="M653.3,474.2c3-3.6,5-8.9,3.8-13.5c0-0.2-0.3-0.1-0.3,0c-0.9,4.7-2.1,8.8-4,13.2
											C652.7,474.2,653.1,474.4,653.3,474.2z"/>
										<path class="st1" d="M650,476.1c3-3.6,5-8.9,3.8-13.5c0-0.2-0.3-0.1-0.3,0c-0.9,4.7-2.1,8.8-4,13.2
											C649.4,476.1,649.8,476.4,650,476.1z"/>
										<path class="st1" d="M646.7,478.1c3-3.6,5-8.9,3.8-13.5c0-0.2-0.3-0.1-0.3,0c-0.9,4.7-2.1,8.8-4,13.2
											C646,478.1,646.4,478.3,646.7,478.1z"/>
										<path class="st1" d="M674.9,434.3c3.2-4.1-3.1-9.2-6.4-5C665.3,433.4,671.7,438.4,674.9,434.3z"/>
									</g>
									<path class="st1" d="M663.3,483.9c3-0.6,3.4-4.2,2.7-6.6c-1.1-3.9-3.7-8-6.7-10.7c-0.1-0.1-0.2,0-0.2,0
										c-0.3-0.1-0.8,0-0.8,0.4c-0.3,4-1.1,8.3-0.1,12.3C658.7,481.7,660.4,484.5,663.3,483.9z M659.1,473.3c0.1-2,0.3-4,0.3-5.9
										c1.3,2.1,2.7,4.1,3.8,6.4c0.5,1.1,1,2.2,1.4,3.3c0.6,1.8,0.8,7.8-3.5,5C658.7,480.4,659,475.6,659.1,473.3z"/>
									<path class="st1" d="M665.1,456.5c-3,2.8-4.7,6.8-6.7,10.3c-0.2,0.4,0.1,0.7,0.4,0.8c0,0.1,0,0.1,0.1,0.1
										c4-0.6,8.4-2.6,11.5-5.3c1.9-1.6,3.5-4.8,1.4-6.9C669.8,453.4,666.9,454.8,665.1,456.5z M668.9,455.9
										c5.1,0,1.6,4.9,0.2,6.1c-0.9,0.7-2,1.4-3,2c-2.1,1.3-4.4,2.2-6.7,3.2c1.1-1.7,2-3.4,3-5.1
										C663.7,460,666.1,455.9,668.9,455.9z"/>
								</g>
							</g>
						</g>
						<g>
							<path class="st20" d="M726.4,419.1l29.2-2.3c0,0,42.2-12.2,66.6-5.8c28,7.3,31.9,40,3.5,53.1c-28.1,13-152,8.2-152,8.2
								l26.6-39.3c0,0,40.8-9.6,76.5-7.6l-50.6,5.8L726.4,419.1z"/>
							<path class="st1" d="M726.7,427.4c4.4-0.7,8.8-1.1,13.1-1.5c4.4-0.4,8.9-0.7,13.3-1c8.8-0.6,17.7-0.7,26.6-0.4
								c0.8,0,1.7,0.1,2.5,0.1c0.2-0.1,0.4-0.1,0.5-0.1c0.4-0.1,0.9-0.2,1.3-0.3c0.8-0.1,1.6-0.2,2.4-0.3c1.7-0.2,3.4-0.4,5-0.6
								c0.1,0,0.1,0.1,0,0.2c-1.7,0.3-3.3,0.8-5,1.1c-0.5,0.1-1,0.2-1.5,0.3c3.2,0.2,6.5,0.6,9.7,0.9c0.1,0,0.1,0.2,0,0.2
								c-4.4-0.4-8.9-0.5-13.3-0.5c-4.4,0-8.8,0-13.2,0.1c-8.9,0.3-17.8,0.9-26.6,1.7c-5,0.4-9.9,0.9-14.9,1
								C726.3,428.2,726.2,427.5,726.7,427.4z"/>
							<path class="st1" d="M686.4,471.3c1.6-2.5,3-5.2,4.6-7.8c1.5-2.6,3-5.2,4.5-7.8c3-5.2,13.9-22.5,14.9-23.8
								c0.1-0.1,0.2,0,0.2,0.1c-0.5,1.4-7.3,12.9-8.9,15.4c-3.1,5.1-6.4,10.2-9.6,15.2c-0.9,1.4-1.9,2.9-2.8,4.3
								c-0.9,1.4-1.9,2.8-2.8,4.3C686.5,471.5,686.3,471.4,686.4,471.3z"/>
						</g>
					</g>
					<g>
						<g>
							<path class="st19" d="M831.9,487.2c-0.7-2.4-41.1-58.9-44-60c-0.3-0.1-19.4,12.7-19.4,12.7c-0.8,1-36.2-7.5-36.2-7.5
								l-1.5,42.9l64.9,0.3c0,0,8.6,5.4,16.5,9.8c0,0,0,0,0,0c4.9,2.7,9.2,5,10.4,5.4C825.8,491.8,832.6,489.6,831.9,487.2z"/>
							<path class="st5" d="M822.6,490.9c-1.2-0.4-5.5-2.7-10.4-5.4c0,0,0,0,0,0c-7.9-4.4-16.5-9.8-16.5-9.8l-14.4-0.1l-21.6-37.1
								c4.9,1,8.6,1.6,8.9,1.3c0,0,19.1-12.8,19.4-12.7c2.8,1.1,43.3,57.6,44,60C832.6,489.6,825.8,491.8,822.6,490.9z"/>
							<g>
								<path class="st12" d="M832.2,487.3c-0.8-2.4-41.4-58.9-44.3-60.1c-1.1-0.5-10.4,5-19.5,12.7l26.2,36.4
									c0,0,24.7,13.9,28,14.9C826.1,492.1,833,489.7,832.2,487.3z"/>
								<g>
									<g>
										<path class="st1" d="M829.4,488.1c-7-9.3-34.6-47.4-40.8-57.2c-0.1-0.1,0-0.1,0.1,0c7.2,9.1,34.4,47.4,40.9,57.1
											C829.7,488.2,829.6,488.3,829.4,488.1z"/>
										<path class="st1" d="M818.1,489c-1.7-2.2-2.2-5.1-1.8-7.3c0.4-2.1,1.5-4.4,3.5-5.7c0.1,0,0.1,0.1,0.1,0.1
											c-3.3,3.2-4.1,8.9-1.7,12.9C818.3,489,818.2,489,818.1,489z"/>
										<path class="st1" d="M797.8,478.5c-2.8-3.7-4.6-9.1-3.2-13.7c0.1-0.2,0.3-0.1,0.3,0.1c0.7,4.7,1.7,8.9,3.4,13.4
											C798.4,478.6,798,478.8,797.8,478.5z"/>
										<path class="st1" d="M801,480.6c-2.8-3.7-4.6-9.1-3.2-13.7c0.1-0.2,0.3-0.1,0.3,0.1c0.7,4.7,1.7,8.9,3.4,13.4
											C801.7,480.7,801.2,480.9,801,480.6z"/>
										<path class="st1" d="M804.3,482.7c-2.8-3.7-4.6-9.1-3.2-13.7c0.1-0.2,0.3-0.1,0.3,0.1c0.7,4.7,1.7,8.9,3.4,13.4
											C804.9,482.8,804.5,483,804.3,482.7z"/>
										<path class="st1" d="M807.5,484.8c-2.8-3.7-4.6-9.1-3.2-13.7c0.1-0.2,0.3-0.1,0.3,0.1c0.7,4.7,1.7,8.9,3.4,13.4
											C808.2,484.9,807.7,485.1,807.5,484.8z"/>
										<path class="st1" d="M781.3,439.8c-3-4.3,3.6-9,6.6-4.7C791,439.3,784.4,444.1,781.3,439.8z"/>
									</g>
									<path class="st1" d="M796,485.6c1.2-3.9,0.6-8.2,0.5-12.3c0-0.4-0.5-0.6-0.8-0.5c0-0.1-0.1-0.1-0.2,0
										c-3.1,2.6-5.9,6.6-7.2,10.4c-0.8,2.4-0.6,5.9,2.4,6.7C793.4,490.6,795.3,487.9,796,485.6z M793,488
										c-4.4,2.6-3.9-3.4-3.2-5.1c0.4-1.1,1-2.2,1.6-3.2c1.2-2.2,2.7-4.1,4.1-6.2c-0.1,2,0,4,0,5.9
										C795.3,481.8,795.4,486.6,793,488z"/>
									<path class="st1" d="M783.4,461.1c-2.3,2.1-0.8,5.3,1.1,7c2.9,2.8,7.3,5,11.3,5.8c0.1,0,0.1,0,0.2-0.1
										c0.3-0.1,0.7-0.4,0.5-0.8c-1.8-3.6-3.3-7.7-6.2-10.6C788.4,460.7,785.5,459.1,783.4,461.1z M792.4,468.1
										c0.9,1.7,1.8,3.5,2.8,5.2c-2.2-1.1-4.4-2.2-6.5-3.5c-1-0.6-2-1.3-2.9-2.1c-1.4-1.2-4.6-6.3,0.5-6.1
										C789.1,461.8,791.3,466,792.4,468.1z"/>
								</g>
							</g>
						</g>
						<g>
							<path class="st20" d="M730.7,419.2l-29.1-0.8c0,0-30.1-15.4-54.7-10.2c-28.3,6-32.8,41.2-12.1,54.3
								c26.2,16.5,144.8,16.6,144.8,16.6L755,435c0,0-39.2-9.3-74.9-9.1l50.2,8.2L730.7,419.2z"/>
							<path class="st1" d="M756.6,437.9c0-0.1,0-0.2,0-0.2c0-0.1,0-0.1,0-0.2c0-0.1-0.1-0.3-0.1-0.4c-0.1-0.3-0.2-0.6-0.3-0.9
								c-0.1-0.3-0.2-0.6-0.3-0.8c-0.1-0.3-0.3-0.5-0.5-0.8c0,0,0,0-0.1,0c0,0,0,0,0,0c0,0,0,0-0.1,0c0,0,0,0-0.1,0
								c-4.3-0.9-33.6-5.9-38-6.5c-4.4-0.6-8.8-1.1-13.2-1.6c-8.8-1-17.7-1.6-26.5-1.7c-0.8,0-1.7,0-2.5,0c-0.2-0.1-0.4-0.1-0.5-0.1
								c-0.4-0.1-0.8-0.2-1.3-0.3c-0.8-0.2-1.6-0.3-2.4-0.5c-1.7-0.3-3.3-0.5-5-0.9c-0.1,0-0.1,0.1,0,0.2c1.7,0.4,3.3,0.9,5,1.4
								c0.5,0.1,1,0.2,1.4,0.3c-3.3,0.1-6.5,0.2-9.8,0.5c-0.1,0-0.1,0.2,0,0.2c4.4-0.1,8.9-0.1,13.3,0.1c4.4,0.2,8.8,0.4,13.1,0.8
								c8.9,0.7,17.7,1.8,26.5,2.9c4.9,0.6,34.8,5.8,39.8,6.2c0,0,0,0,0.1,0c0,0.1,0.1,0.2,0.1,0.3c0.1,0.3,0.3,0.5,0.4,0.8
								c0.1,0.3,0.3,0.5,0.4,0.8c0.1,0.1,0.2,0.2,0.2,0.4c0,0.1,0.1,0.1,0.1,0.2c0,0.1,0.1,0.1,0.1,0.2
								C756.5,438,756.7,438,756.6,437.9z"/>
							<path class="st1" d="M770.3,476.2c-1.5-2.6-2.8-5.3-4.2-8c-1.4-2.7-2.8-5.3-4.2-8c-2.8-5.3-12.8-23.2-13.8-24.4
								c-0.1-0.1-0.2,0-0.2,0.1c0.5,1.4,6.7,13.2,8.1,15.8c2.9,5.3,5.9,10.4,8.9,15.7c0.9,1.5,1.7,3,2.6,4.4
								c0.9,1.5,1.8,2.9,2.6,4.5C770.2,476.4,770.3,476.3,770.3,476.2z"/>
						</g>
					</g>
				</g>
				<g>
					<g>
						<path class="st21" d="M700.9,417.9c1.1,1.2,70.3,2.7,70.6,2.3c0.9-1.2-8-45.1-15.2-61.9c-9.3-21.5-14.5-23.4-17.6-24.7
							c-4-1.6-11.2-1.3-12.9-0.5c-2,0.8-10.6,10.4-13.1,18.2C707.4,367,699.9,416.9,700.9,417.9z"/>
						<path class="st5" d="M729.7,361.1c-0.5,0.9-0.7,1.8-0.9,2.7c-0.2,0.9-0.3,1.9-0.2,2.8c0.5-0.9,0.7-1.8,0.9-2.7
							C729.7,363,729.9,362,729.7,361.1z M739.5,406.3c-0.5,0.9-0.7,1.8-0.9,2.7c-0.2,0.9-0.3,1.9-0.2,2.8c0.5-0.9,0.7-1.8,0.9-2.7
							C739.5,408.2,739.6,407.3,739.5,406.3z M713.1,386c-0.5,0.9-0.7,1.8-0.9,2.7c-0.2,0.9-0.3,1.9-0.2,2.8
							c0.5-0.9,0.7-1.8,0.9-2.7C713.1,387.9,713.2,387,713.1,386z M759,382.3c-0.5,0.9-0.7,1.8-0.9,2.7c-0.2,0.9-0.3,1.9-0.2,2.8
							c0.5-0.8,0.7-1.8,0.9-2.7C759,384.2,759.1,383.3,759,382.3z M737.3,336.9c-0.9-0.2-1.9-0.3-2.8-0.2c0.9,0.5,1.8,0.7,2.7,0.9
							c0.9,0.2,1.9,0.3,2.8,0.2C739.1,337.3,738.2,337.1,737.3,336.9z M759,365.8c-0.7-0.3-1.5-0.5-2.3-0.7
							c-0.9-0.2-1.9-0.3-2.8-0.2c0.9,0.5,1.8,0.7,2.7,0.9c0.8,0.1,1.7,0.3,2.5,0.2c0.1,0,0.2,0,0.3,0
							C759.3,365.9,759.2,365.8,759,365.8z M711.4,355.6c-0.1,0.2-0.1,0.5-0.2,0.7c0.8,0.1,1.7,0.2,2.6,0.1
							C713,356,712.2,355.8,711.4,355.6z M721.4,416.8c-0.9-0.2-1.9-0.3-2.8-0.2c0.9,0.5,1.8,0.7,2.7,0.9c0.9,0.2,1.9,0.3,2.8,0.2
							C723.2,417.3,722.3,417,721.4,416.8z M723.1,378.8c-0.9-0.1-1.9-0.3-2.8-0.2c0.9,0.5,1.8,0.7,2.7,0.9c0.9,0.2,1.9,0.3,2.8,0.2
							C724.9,379.2,724,379,723.1,378.8z M771.3,417.2c-0.4,0-0.8,0-1.2,0c0.4,0.2,0.9,0.4,1.3,0.6
							C771.4,417.6,771.3,417.4,771.3,417.2z M748.1,396.3c-0.9-0.2-1.9-0.3-2.8-0.2c0.9,0.5,1.8,0.7,2.7,0.9
							c0.9,0.2,1.9,0.3,2.8,0.2C749.9,396.7,749,396.4,748.1,396.3z M723.9,347.5c-0.5-0.8-1.1-1.5-1.9-2.1c0.3,0.9,0.8,1.8,1.3,2.5
							c0.5,0.8,1.1,1.5,1.9,2.1C724.9,349.1,724.4,348.3,723.9,347.5z M723.4,402c-0.5-0.8-1.1-1.5-1.9-2.1c0.3,0.9,0.8,1.7,1.3,2.5
							c0.5,0.8,1.1,1.5,1.9,2.1C724.4,403.6,723.9,402.8,723.4,402z M751,417c-0.5-0.8-1.1-1.5-1.9-2.1c0.3,0.9,0.8,1.7,1.3,2.5
							c0.5,0.8,1.1,1.5,1.9,2.1C752,418.6,751.6,417.8,751,417z M744.4,373.9c-0.5-0.8-1.1-1.5-1.9-2.1c0.3,0.9,0.8,1.7,1.3,2.5
							c0.5,0.8,1.1,1.5,1.9,2.1C745.4,375.5,744.9,374.7,744.4,373.9z M712.2,367.3c-0.8,0.5-1.5,1.1-2.1,1.9
							c0.9-0.3,1.8-0.8,2.5-1.3c0.8-0.5,1.5-1.1,2.1-1.9C713.8,366.3,713,366.8,712.2,367.3z M706.9,407.3c-0.8,0.5-1.5,1.1-2.1,1.9
							c0.9-0.3,1.8-0.8,2.5-1.3c0.8-0.5,1.5-1.1,2.1-1.9C708.5,406.3,707.7,406.7,706.9,407.3z M734.5,387.9
							c-0.8,0.5-1.5,1.1-2.1,1.9c0.9-0.3,1.8-0.7,2.6-1.3c0.8-0.5,1.5-1.1,2.1-1.9C736.1,386.9,735.3,387.3,734.5,387.9z M761,406.1
							c-0.8,0.5-1.5,1.1-2.1,1.9c0.9-0.3,1.8-0.8,2.5-1.3c0.8-0.5,1.5-1.1,2.1-1.9C762.6,405.1,761.8,405.6,761,406.1z M742.3,352.2
							c-0.8,0.5-1.5,1.1-2.1,1.9c0.9-0.3,1.7-0.8,2.5-1.3c0.8-0.5,1.5-1.1,2.1-1.9C743.9,351.2,743.1,351.6,742.3,352.2z"/>
					</g>
					<g>
						<g>
							<path class="st19" d="M750.1,339.5c29.8,22.4,55.6,53.5,53.1,63.4c-2.6,10.4-23.2,22.1-41.4,24.4
								c-3.7,0.5-15.3-26.9-11.4-28.1c3-1,16.5-4.8,18.1-6.7c1.1-1.3-19.9-30.8-26.7-46.3C734.7,330.1,742.2,333.5,750.1,339.5z"/>
							<g>
								<g>
									<path class="st19" d="M758.1,398.3c0,0-11.4,1.1-18.8,2.2c-4.1,0.6-11.1,2.3-14,4.1c-4.2,2.8-20.2,17-16.8,20.9
										c3,3.6,7.6-2.1,7.6-2.1s-5.6,5.7-1.5,8.3c4.1,2.6,9.4-5.3,9.4-5.3s-6.4,5.6-1.7,8c4,2.1,11.1-6.4,11.1-6.4
										s-7.3,5.2-3.4,7.7c4.3,2.8,16.5-8.6,16.5-8.6c9.7,1.1,15.7,0.4,22.6-1.5C770.4,425.4,758.1,398.3,758.1,398.3z"/>
								</g>
								<g>
									<path class="st1" d="M722.4,428.4c0.4-0.6,0.9-1.2,1.3-1.8c0.9-1.2,1.7-2.3,2.7-3.4c1-1,2-2,3-3c1.1-1,2.3-1.9,3.4-3
										c0.1-0.1,0.2,0,0.1,0.1c-1.1,1-2.1,2.2-3,3.2c-1,1.1-1.9,2.2-2.9,3.3c-0.9,1.1-1.9,2.1-2.9,3.1c-0.5,0.5-0.9,1.1-1.4,1.6
										c-0.4,0.5-0.8,1.1-1.3,1.5c-0.1,0-0.1,0-0.1-0.1C721.6,429.5,722,428.9,722.4,428.4z"/>
									<path class="st1" d="M715,424.7c0.5-1.1,4-5.4,4.9-6.5c1.8-2,3.8-3.9,6-5.5c0.1-0.1,0.2,0.1,0.1,0.1c-1.8,2-3.7,4-5.5,6
										c-0.9,1-4.8,5.5-5.3,6C715.1,425,715,424.9,715,424.7z"/>
									<path class="st1" d="M729.2,432.1c0.6-1.1,3.8-5,4.7-6c0.9-0.9,4.8-4.1,6.1-4.9c0.1,0,0.2,0.1,0.1,0.1
										c-1.9,1.8-3.8,3.5-5.7,5.3c-0.9,0.9-4.2,4.7-5.1,5.5C729.3,432.3,729.1,432.2,729.2,432.1z"/>
								</g>
							</g>
						</g>
						<g>
							<path class="st22" d="M783.3,367.1l-22.7,14.7c0,0-16.9-26.1-21.2-38.5c-4.4-12.4,0.7-12.4,12.6-3.4
								C763.9,348.9,783.3,367.1,783.3,367.1z"/>
							<path class="st5" d="M743.1,351.7c0.1,0.2,0.2,0.4,0.3,0.6c0.6-0.4,1.1-0.9,1.5-1.4C744.2,351.1,743.6,351.4,743.1,351.7z
								 M769.1,368.4c-0.8,0.5-1.5,1.1-2.1,1.9c0.9-0.3,1.7-0.8,2.5-1.3c0.8-0.5,1.5-1.1,2.1-1.9
								C770.7,367.4,769.9,367.9,769.1,368.4z M768.8,357.5c-0.5-0.8-1.1-1.5-1.9-2.1c0.3,0.9,0.8,1.8,1.3,2.5
								c0.6,0.8,1.1,1.5,1.9,2.1C769.8,359.1,769.3,358.3,768.8,357.5z M756.7,365c-0.9-0.2-1.9-0.3-2.8-0.2
								c0.9,0.5,1.8,0.7,2.7,0.9c0.9,0.2,1.9,0.3,2.8,0.2C758.6,365.5,757.6,365.2,756.7,365z M781.5,365.5c-0.3,0-0.7,0-1,0
								c0.6,0.3,1.2,0.5,1.8,0.7C782.1,366,781.8,365.7,781.5,365.5z M737.8,337c0,0.2,0,0.5,0.1,0.7c0.7,0.1,1.4,0.2,2.1,0.1
								C739.3,337.4,738.6,337.2,737.8,337z M757.1,345.4c-0.5,0.9-0.7,1.8-0.9,2.7c-0.2,0.9-0.3,1.9-0.2,2.8
								c0.5-0.9,0.7-1.8,0.9-2.7C757.1,347.3,757.2,346.4,757.1,345.4z"/>
							<path class="st1" d="M778.1,363.8c-8.7,6.9-17.2,11.6-18.9,12.8c-0.1,0.1-0.2-0.1-0.1-0.1c1.7-1.1,11-7.9,18.9-12.8
								C778.2,363.6,778.2,363.8,778.1,363.8z"/>
							<path class="st1" d="M762.1,380.8c-0.2,0-1.2,0.6-1.4,0.7c-2.5-4.4-5.2-8.8-7.8-13.1c-1.3-2.1-2.5-4.2-3.8-6.4
								c-1.3-2.2-2.5-4.5-3.9-6.7c0-0.1-0.1,0-0.1,0.1c0.9,2.1,2,4.1,3.1,6.2c-0.2-0.3-0.5-0.6-0.7-0.9c-0.6-0.7-1.1-1.3-1.6-2
								c-0.1-0.1-0.3,0-0.2,0.1c0.5,0.7,0.9,1.4,1.3,2.1c0.4,0.7,0.9,1.4,1.4,2.1c0.5,0.7,1,1.3,1.5,1.9c0.1,0.1,0.1,0.2,0.2,0.2
								c0.7,1.3,1.4,2.5,2.1,3.8c2.5,4.4,8.3,13.2,8.3,13.2c0.3-0.1,1.5-1,1.6-1.1C762.2,380.9,762.1,380.8,762.1,380.8z"/>
						</g>
					</g>
					<g>
						<g>
							<path class="st19" d="M712.8,340.5c-24,13-46.5,28.6-50.6,39.3c-2.6,6.7,0.9,18.8,3.8,26c1.4,3.5,34.6-10.8,31.8-13.7
								c-7-7.2-8.1-10.1-7.4-11.5c0.5-0.9,26.6-24.4,33.8-34.9C734.3,331.1,723.3,334.8,712.8,340.5z"/>
							<g>
								<path class="st19" d="M710.9,424.8c-3.1,1.8-7-6.3-7-6.3s-0.1,2.5-1.8,4.2c-2,1.9-5.9-0.3-5.9-0.3s-0.6,2.5-2.6,4.1
									c-2.1,1.6-6.3-0.1-6.3-0.1s-1.8,2-4.6,2.2c-4.6,0.2-8.7-5.6-11.3-9.3c-2.6-3.7-6.6-16.6-7.6-18.9l23.5-16.9
									c0,0,16.4,13.2,18.8,17.9C708.3,405.3,715.7,422,710.9,424.8z"/>
								<g>
									<path class="st1" d="M704,418.4c-1.2-4.8-3.5-9.3-5.8-13.6c-0.1-0.1-0.2,0-0.1,0.1c2.3,4.3,3.6,9.3,5.7,13.6
										C703.8,418.6,704,418.5,704,418.4z"/>
									<path class="st1" d="M696.5,422c-0.3-1.1-0.9-2.1-1.5-3c-0.6-1-1.2-2-1.9-3c-1.3-2-2.6-4-4-5.9c-0.1-0.1-0.2,0-0.1,0.1
										c1.3,2,2.5,4,3.7,6.1c0.6,1,1.2,2.1,1.8,3.1c0.5,1,1,2,1.8,2.9C696.4,422.3,696.6,422.2,696.5,422z"/>
									<path class="st1" d="M687.3,426.3c-0.2-0.9-1-1.8-1.5-2.6c-0.6-0.9-1.2-1.8-1.8-2.7c-1.2-1.8-2.4-3.6-3.5-5.5
										c-0.1-0.1-0.2,0-0.1,0.1c1.1,1.9,2.2,3.8,3.4,5.7c0.6,0.9,1.1,1.8,1.7,2.8C685.9,424.7,686.5,425.8,687.3,426.3
										C687.3,426.4,687.3,426.3,687.3,426.3z"/>
								</g>
							</g>
						</g>
						<g>
							<path class="st22" d="M678.1,359.9l18,17.1c0,0,23-21,29.5-32.4c6.6-11.4,1.6-12.3-11.8-5.7
								C700.5,345.6,678.1,359.9,678.1,359.9z"/>
							<path class="st5" d="M709.9,343.3c-0.8,0.5-1.5,1.1-2.1,1.9c0.9-0.3,1.7-0.8,2.5-1.3c0.8-0.5,1.5-1.1,2.1-1.9
								C711.5,342.3,710.6,342.8,709.9,343.3z M698.4,368.5c-0.5-0.8-1.1-1.5-1.9-2.1c0.3,0.9,0.8,1.7,1.3,2.5
								c0.5,0.8,1.1,1.5,1.9,2.1C699.3,370.1,698.9,369.3,698.4,368.5z M722,345.4c0.3,0.9,0.8,1.8,1.3,2.5c0,0,0.1,0.1,0.1,0.1
								c0.2-0.2,0.3-0.4,0.5-0.6C723.3,346.7,722.7,346,722,345.4z M711,355.5c-0.9-0.2-1.9-0.3-2.8-0.2c0.9,0.5,1.8,0.7,2.7,0.9
								c0.9,0.2,1.9,0.3,2.8,0.2C712.9,356,711.9,355.7,711,355.5z M685.1,360.7c-0.9-0.1-1.9-0.3-2.8-0.2c0.9,0.5,1.8,0.7,2.7,0.9
								c0.9,0.1,1.9,0.3,2.8,0.2C686.9,361.1,686,360.9,685.1,360.7z M697.6,352.6c-0.5,0.9-0.7,1.8-0.9,2.7
								c-0.2,0.9-0.3,1.9-0.2,2.8c0.5-0.9,0.7-1.8,0.9-2.7C697.6,354.5,697.7,353.5,697.6,352.6z"/>
							<path class="st1" d="M699.7,372.4c-8.3-6.8-14.5-13.9-15.9-15.3c-0.1-0.1,0-0.2,0.1-0.1c1.3,1.4,9.7,8.8,15.9,15.3
								C699.9,372.4,699.8,372.5,699.7,372.4z"/>
						</g>
						<path class="st1" d="M713.4,352c-0.9,1.9-1.7,3.8-2.4,5.8c0-0.1,0-0.3,0-0.4c0.1-1.2,0.2-2.4,0.5-3.6c0-0.1-0.2-0.2-0.2-0.1
							c-0.3,1.2-0.5,2.4-0.6,3.6c-0.1,0.6-0.1,1.2-0.2,1.7c0,0.1,0,0.1,0,0.2c0,0,0,0,0,0.1c-0.8,2.6-1.3,5.3-2,7.9
							c0,0.1,0.2,0.2,0.2,0.1c0.7-2.6,1.7-5.1,2.6-7.6c0.9-2.5,1.6-5.1,2.4-7.7C713.6,352,713.4,351.9,713.4,352z"/>
					</g>
					<g>
						<g>
							<g>
								<path class="st19" d="M728.1,345.2c4,0.8,10.5-5.5,12.9-10.5c0.2-0.3-0.5-3.8-1.1-8.1c-0.4-2.6-0.7-5.5-0.8-8.2
									c0-0.5-16.6,4.8-16.6,4.8s1.9,5.5,2,10.2c0,0.4,0,0.8-0.1,1.1c0,0.1,0,0.1,0,0.2C724.3,336.8,724.3,344.5,728.1,345.2z"/>
							</g>
							<path class="st1" d="M738.1,318.6c-0.6,4.5-2.9,15.6-11.9,16.1c-0.6,0-1.2,0-1.7,0c0-0.1,0-0.1,0-0.2
								c0.1-0.4,0.1-0.7,0.1-1.1c-0.2-4.7-2-10.2-2-10.2S734.5,319.4,738.1,318.6z"/>
						</g>
						<g>
							<g>
								<path class="st19" d="M736.5,296.4c3.2,5.3,4.3,22.7,1.1,27.5c-4.6,6.9-14.2,9.8-20.6,3.8c-6.2-5.8-7.2-28.6-3.4-33.1
									C719.2,288,731.8,288.5,736.5,296.4z"/>
							</g>
							<g>
								<g>
									<path class="st1" d="M724,312.6C724,312.5,724.1,312.6,724,312.6c0.1,1.3,0.4,2.6,1.5,2.9c0,0,0,0.1,0,0.1
										C724.2,315.5,723.9,313.7,724,312.6z"/>
									<path class="st1" d="M725,311.3c1.9-0.3,2.3,3.5,0.5,3.8C723.8,315.3,723.4,311.5,725,311.3z"/>
								</g>
								<g>
									<path class="st1" d="M717.5,313.3c0,0-0.1,0.1-0.1,0.1c0.2,1.2,0.2,2.5-0.9,3c0,0,0,0.1,0,0.1
										C717.8,316.2,717.8,314.4,717.5,313.3z"/>
									<path class="st1" d="M716.3,312.2c-1.9,0.1-1.6,3.8,0.1,3.8C718.2,316,717.9,312.2,716.3,312.2z"/>
								</g>
								<path class="st1" d="M726.4,308.1c-0.5,0-1-0.1-1.6-0.1c-0.6,0-1.1,0-1.6-0.4c-0.3-0.2-0.3-0.7-0.1-1
									c0.4-0.6,1.1-0.8,1.9-0.8c0.8,0,1.4,0.2,2,0.7C727.6,307.2,727.1,308.1,726.4,308.1z"/>
								<path class="st1" d="M714.3,309.7c0.5-0.1,1-0.4,1.5-0.5c0.6-0.2,1-0.3,1.4-0.8c0.2-0.3,0.1-0.8-0.2-1
									c-0.6-0.5-1.3-0.4-2-0.2c-0.7,0.3-1.2,0.6-1.7,1.3C712.9,309.1,713.6,309.8,714.3,309.7z"/>
								<path class="st1" d="M727.1,323.2c-0.3,0.3-0.5,0.7-0.9,0.8c-0.4,0.1-0.9-0.1-1.3-0.2c0,0-0.1,0,0,0.1
									c0.4,0.4,1,0.6,1.6,0.5c0.5-0.1,0.7-0.6,0.8-1.1C727.3,323.2,727.2,323.2,727.1,323.2z"/>
								<g>
									<g>
										<path class="st1" d="M725.5,319.9c-0.5,1.1-1.4,1.7-2.5,2.1c-0.5,0.1-0.9,0.2-1.4,0.2c-0.1,0-0.2,0-0.3,0
											c-0.1,0-0.2,0-0.3,0c-0.1,0-0.2-0.1-0.3-0.2l0,0c0,0,0-0.1,0-0.1c0,0,0,0,0,0l0-0.1c-0.1-0.9-0.2-2.3-0.2-2.3
											c-0.3,0.2-1.9,1.1-1.9,0.7c-0.2-3.9-0.4-8.3,0.3-12.2c0-0.1,0.2-0.1,0.2,0c0.3,3.8,0,7.5,0.3,11.3
											c0.5-0.3,1.3-0.7,1.8-0.8c0.1,0,0.1,2.7,0.2,3.1c0,0,0,0,0,0c1.5,0,2.6-0.5,4-1.7C725.5,319.7,725.6,319.8,725.5,319.9z"
											/>
									</g>
								</g>
								<g>
									<path class="st1" d="M722.1,321.6c0,0,0.9,1,2,1.3c0.4,0.1,0.9,0.1,1.3-0.1c0.9-0.3,0.8-1.2,0.6-1.9
										c-0.2-0.6-0.5-1.1-0.5-1.1S724.3,321.3,722.1,321.6z"/>
									<path class="st23" d="M724.2,322.9c0.4,0.1,0.9,0.1,1.3-0.1c0.9-0.3,0.8-1.2,0.6-1.9C725.1,321.1,724.2,321.9,724.2,322.9z
										"/>
								</g>
							</g>
							<g>
								<path class="st1" d="M739.4,311.1c-4.3,1-6.9-6.7-6.9-6.7s-7.7,0.5-10-4.9c0,0-6,6.1-12,5.3c-6-0.8-6.2-7.3-5.9-8.7
									c0.3-1.5,3.9,0.3,3.9,0.3s-0.4-3.6,0.4-4.2c0.9-0.6,2.4,1.3,2.4,1.3s6.6-4,13.1-5.3c6.5-1.3,11.2,4.5,11.2,4.5
									s3.6,0,5.3,2.1C742.5,297.1,742.2,310.5,739.4,311.1z"/>
								<path class="st1" d="M722.4,298.5c0.3,1.1,0.8,2.2,1.4,3.2c0.7,0.9,1.6,1.6,2.6,2.1c1,0.4,2.2,0.5,3.3,0.5
									c0.6,0,1.2-0.1,1.7-0.1c0.6-0.1,1.1-0.2,1.7-0.3c-0.6,0.2-1.1,0.4-1.7,0.6c-0.6,0.1-1.2,0.2-1.8,0.3c-1.2,0.1-2.4,0-3.6-0.5
									c-1.1-0.5-2.1-1.3-2.8-2.4C722.8,300.8,722.4,299.6,722.4,298.5z"/>
								<path class="st1" d="M735.8,293.7c-0.8-1.7-2.1-3.2-3.6-4.3c-1.5-1.1-3.4-1.6-5.3-1.5c-0.5,0-0.9,0-1.4,0.1l-1.4,0.3
									c-0.9,0.2-1.8,0.6-2.7,0.9c-0.8,0.4-1.7,0.8-2.6,1.3c-0.8,0.5-1.6,1-2.5,1.4c0.8-0.6,1.6-1.1,2.3-1.7
									c0.8-0.5,1.7-0.9,2.5-1.4c1.8-0.8,3.6-1.5,5.6-1.5c2-0.1,4,0.5,5.5,1.7C734,290.2,735.2,291.9,735.8,293.7z"/>
							</g>
							<g>
								<path class="st19" d="M736.4,310.9c0,0,2.6-6.3,5.3-5.5c2.8,0.8,1.7,9.3-0.9,11s-4.3-0.7-4.3-0.7L736.4,310.9z"/>
								<path class="st1" d="M741.3,307.8C741.4,307.8,741.4,307.9,741.3,307.8c-1.8,1.4-2.4,3.5-2.7,5.6c0.4-0.9,1.2-1.5,2.3-1
									c0.1,0,0,0.1,0,0.1c-0.9,0-1.4,0.3-1.8,1.1c-0.3,0.6-0.4,1.2-0.6,1.8c-0.1,0.2-0.4,0.2-0.4,0c0,0,0,0,0-0.1
									C737.4,312.8,738.6,308.7,741.3,307.8z"/>
							</g>
						</g>
					</g>
					<path class="st1" d="M743.1,335.8c-1.7,2.4-3.4,4.8-5.3,6.9c-1.8,2-4.1,3.9-6.8,4.4c-2.6,0.5-5.3,0.2-6.6-3
						c-1-2.5-1.1-5.2-0.9-8.5c0-0.2-0.2-0.2-0.2,0c-0.2,4.3-0.3,10.9,3.7,12c4.4,1.3,8.5-1.3,11.2-4.6
						C740.1,340.9,741.9,338.4,743.1,335.8C743.3,335.8,743.2,335.8,743.1,335.8z"/>
				</g>
			</g>
			<g>
				<g>
					<rect x="674.8" y="433.8" class="st18" width="76.3" height="3.4"/>
				</g>
				<g>
					<polygon class="st15" points="734.8,433.8 737.4,437.3 674.8,437.3 674.8,433.8 					"/>
				</g>
				<g>
					<polygon class="st18" points="731.5,437.3 657.1,437.3 650.9,386.7 725.3,386.7 					"/>
					<path class="st5" d="M695.8,412c0,2.5-1.9,4.5-4.4,4.5c-2.5,0-4.6-2-4.6-4.5c0-2.5,1.9-4.5,4.4-4.5S695.7,409.5,695.8,412z"/>
				</g>
			</g>
		</g>
		<g>
			<rect x="106.4" y="70.6" class="st24" width="111.8" height="40.8"/>
			<path class="st25" d="M109,76.6c1.6-0.3,3.8-0.5,5.9-0.5c3.3,0,5.4,0.6,6.8,1.9c1.2,1.1,1.9,2.7,1.9,4.5c0,3.1-2,5.2-4.5,6v0.1
				c1.8,0.7,2.9,2.4,3.5,4.8c0.8,3.3,1.3,5.6,1.8,6.5h-3.2c-0.4-0.7-0.9-2.7-1.6-5.7c-0.7-3.2-2-4.5-4.7-4.6h-2.9V100H109V76.6z
				 M112.1,87.4h3.1c3.3,0,5.3-1.8,5.3-4.5c0-3.1-2.2-4.4-5.4-4.4c-1.5,0-2.5,0.1-3,0.3V87.4z"/>
			<path class="st25" d="M129.7,92c0.1,4.2,2.7,5.9,5.8,5.9c2.2,0,3.6-0.4,4.7-0.9l0.5,2.2c-1.1,0.5-2.9,1.1-5.6,1.1
				c-5.2,0-8.4-3.5-8.4-8.6c0-5.2,3-9.2,8-9.2c5.5,0,7,4.8,7,8c0,0.6-0.1,1.1-0.1,1.4H129.7z M138.7,89.8c0-1.9-0.8-5-4.3-5
				c-3.1,0-4.5,2.8-4.7,5H138.7z"/>
			<path class="st25" d="M157.5,95.9c0,1.5,0.1,2.9,0.2,4.1h-2.8l-0.3-2.1h-0.1c-0.9,1.3-2.8,2.5-5.2,2.5c-3.4,0-5.2-2.5-5.2-4.9
				c0-4.1,3.6-6.4,10.2-6.3v-0.4c0-1.4-0.4-3.9-3.9-3.9c-1.6,0-3.3,0.5-4.4,1.3l-0.7-2c1.4-0.9,3.5-1.5,5.6-1.5
				c5.2,0,6.5,3.5,6.5,6.9V95.9z M154.5,91.3c-3.4-0.1-7.2,0.5-7.2,3.8c0,2,1.4,2.9,2.9,2.9c2.2,0,3.6-1.4,4.1-2.8
				c0.1-0.4,0.1-0.7,0.1-1V91.3z"/>
			<path class="st25" d="M174.6,99.3c-0.8,0.4-2.6,1-4.9,1c-5.1,0-8.5-3.5-8.5-8.7c0-5.2,3.6-9.1,9.1-9.1c1.8,0,3.4,0.5,4.3,0.9
				l-0.7,2.4c-0.7-0.4-1.9-0.8-3.6-0.8c-3.9,0-6,2.9-6,6.4c0,3.9,2.5,6.4,5.9,6.4c1.7,0,2.9-0.5,3.8-0.8L174.6,99.3z"/>
			<path class="st25" d="M182.3,78.1V83h4.4v2.3h-4.4v9.2c0,2.1,0.6,3.3,2.3,3.3c0.8,0,1.4-0.1,1.8-0.2l0.1,2.3
				c-0.6,0.3-1.5,0.5-2.8,0.5c-1.4,0-2.6-0.5-3.3-1.3c-0.8-1-1.2-2.5-1.2-4.5v-9.3h-2.6V83h2.6v-4.1L182.3,78.1z"/>
			<path class="st25" d="M189.6,98.2c0-1.3,0.8-2.2,2.1-2.2c1.3,0,2.1,0.9,2.1,2.2c0,1.2-0.8,2.2-2.1,2.2
				C190.4,100.3,189.5,99.4,189.6,98.2z"/>
			<path class="st25" d="M194.1,104.9c1.4-0.1,2.7-0.5,3.4-1.3c0.8-0.9,1.2-2.3,1.2-6.4V83h3.1v15.4c0,3.3-0.6,5.4-2,7
				c-1.4,1.4-3.6,1.9-5.3,1.9L194.1,104.9z M202.1,78.2c0,1-0.7,1.9-2,1.9c-1.2,0-1.9-0.9-1.9-1.9c0-1.1,0.8-1.9,1.9-1.9
				C201.3,76.3,202.1,77.1,202.1,78.2z"/>
			<path class="st25" d="M206.4,96.8c0.9,0.6,2.5,1.2,4.1,1.2c2.2,0,3.3-1.1,3.3-2.5c0-1.5-0.9-2.2-3.2-3.1
				c-3.1-1.1-4.5-2.8-4.5-4.8c0-2.7,2.2-4.9,5.9-4.9c1.7,0,3.2,0.5,4.2,1l-0.8,2.2c-0.7-0.4-1.9-1-3.5-1c-1.8,0-2.8,1.1-2.8,2.4
				c0,1.4,1,2,3.2,2.9c2.9,1.1,4.5,2.5,4.5,5.1c0,3-2.3,5.1-6.4,5.1c-1.9,0-3.6-0.5-4.8-1.2L206.4,96.8z"/>
		</g>
	</g>
	
		<image style="overflow:visible;" width="96" height="96" xlink:href="E:\Website\Projects\React\DevDiary\devdiary\src\assets\diary.png"  transform="matrix(0.132 0 0 0.132 684.8992 404.5704)">
	</image>
	<g>
		<g>
			<path class="st26" d="M783.7,140.4v-12.5h1.8l4,6.3c0.9,1.5,1.7,2.8,2.2,4.1l0,0c-0.1-1.7-0.2-3.2-0.2-5.1v-5.2h1.5v12.5h-1.6
				l-4-6.3c-0.9-1.4-1.7-2.8-2.3-4.2l-0.1,0c0.1,1.6,0.1,3.1,0.1,5.2v5.3H783.7z"/>
			<path class="st26" d="M803.9,135.9c0,3.3-2.4,4.7-4.5,4.7c-2.4,0-4.3-1.8-4.3-4.7c0-3,2-4.7,4.5-4.7
				C802.1,131.2,803.9,133,803.9,135.9z M796.8,136c0,1.8,0.9,3.4,2.7,3.4c1.8,0,2.7-1.6,2.7-3.4c0-1.6-0.7-3.5-2.7-3.5
				C797.5,132.4,796.8,134.4,796.8,136z"/>
			<path class="st26" d="M813.7,127.2v10.9c0,0.8,0,1.7,0.1,2.3h-1.4l-0.1-1.6h-0.1c-0.5,1-1.6,1.8-3,1.8c-2.2,0-3.9-1.8-3.9-4.5
				c0-3,1.8-4.8,4-4.8c1.4,0,2.3,0.6,2.7,1.4h0v-5.4H813.7z M812.1,135.1c0-0.2,0-0.5-0.1-0.7c-0.3-1-1.1-1.9-2.4-1.9
				c-1.7,0-2.7,1.5-2.7,3.4c0,1.8,0.9,3.3,2.7,3.3c1.1,0,2.1-0.7,2.4-2c0.1-0.2,0.1-0.4,0.1-0.7V135.1z"/>
			<path class="st26" d="M817.3,136.2c0,2.2,1.4,3.1,3.1,3.1c1.2,0,1.9-0.2,2.5-0.5l0.3,1.2c-0.6,0.3-1.6,0.6-3,0.6
				c-2.8,0-4.4-1.8-4.4-4.5c0-2.7,1.6-4.8,4.2-4.8c2.9,0,3.7,2.6,3.7,4.2c0,0.3,0,0.6-0.1,0.8H817.3z M822.1,135
				c0-1-0.4-2.6-2.3-2.6c-1.7,0-2.4,1.5-2.5,2.6H822.1z"/>
			<path class="st26" d="M825.2,139.5c0-0.7,0.4-1.2,1.1-1.2c0.7,0,1.1,0.5,1.1,1.2c0,0.6-0.4,1.1-1.1,1.1
				C825.6,140.6,825.2,140.1,825.2,139.5z"/>
			<path class="st26" d="M833.7,134.5v1.5h-4.6v-1.5H833.7z"/>
		</g>
	</g>
	<g>
		<rect x="595" y="127.8" class="st24" width="64.1" height="15.3"/>
		<path class="st2" d="M596,130.1c0.7-0.1,1.5-0.2,2.4-0.2c1.6,0,2.8,0.4,3.6,1.1c0.8,0.7,1.2,1.8,1.2,3.2c0,1.4-0.4,2.6-1.3,3.4
			c-0.8,0.8-2.2,1.3-3.9,1.3c-0.8,0-1.5,0-2.1-0.1V130.1z M597.1,137.9c0.3,0.1,0.7,0.1,1.2,0.1c2.4,0,3.8-1.4,3.8-3.8
			c0-2.1-1.2-3.4-3.6-3.4c-0.6,0-1,0.1-1.3,0.1V137.9z"/>
		<path class="st2" d="M605.4,135.8c0,1.6,1,2.2,2.2,2.2c0.8,0,1.3-0.1,1.8-0.3l0.2,0.8c-0.4,0.2-1.1,0.4-2.1,0.4
			c-2,0-3.1-1.3-3.1-3.2c0-1.9,1.1-3.4,3-3.4c2.1,0,2.6,1.8,2.6,3c0,0.2,0,0.4-0.1,0.5H605.4z M608.8,135c0-0.7-0.3-1.9-1.6-1.9
			c-1.2,0-1.7,1.1-1.8,1.9H608.8z"/>
		<path class="st2" d="M611.8,132.5l1.2,3.6c0.2,0.6,0.4,1.1,0.5,1.6h0c0.1-0.5,0.3-1.1,0.5-1.6l1.2-3.6h1.2l-2.5,6.3h-1.1l-2.4-6.3
			H611.8z"/>
		<path class="st2" d="M617.7,130.1c0.7-0.1,1.5-0.2,2.4-0.2c1.6,0,2.8,0.4,3.6,1.1c0.8,0.7,1.2,1.8,1.2,3.2c0,1.4-0.4,2.6-1.3,3.4
			c-0.8,0.8-2.2,1.3-3.9,1.3c-0.8,0-1.5,0-2.1-0.1V130.1z M618.8,137.9c0.3,0.1,0.7,0.1,1.2,0.1c2.4,0,3.8-1.4,3.8-3.8
			c0-2.1-1.2-3.4-3.6-3.4c-0.6,0-1,0.1-1.3,0.1V137.9z"/>
		<path class="st2" d="M627.7,130.7c0,0.4-0.3,0.7-0.7,0.7c-0.4,0-0.7-0.3-0.7-0.7c0-0.4,0.3-0.7,0.7-0.7S627.7,130.3,627.7,130.7z
			 M626.4,138.8v-6.3h1.1v6.3H626.4z"/>
		<path class="st2" d="M633.9,137.3c0,0.6,0,1.1,0.1,1.5h-1l-0.1-0.8h0c-0.4,0.5-1,0.9-1.9,0.9c-1.3,0-1.9-0.9-1.9-1.8
			c0-1.5,1.4-2.4,3.8-2.3v-0.1c0-0.5-0.2-1.5-1.4-1.5c-0.6,0-1.2,0.2-1.7,0.5l-0.3-0.8c0.5-0.3,1.3-0.6,2.1-0.6
			c1.9,0,2.4,1.3,2.4,2.6V137.3z M632.8,135.6c-1.3,0-2.7,0.2-2.7,1.4c0,0.8,0.5,1.1,1.1,1.1c0.8,0,1.4-0.5,1.5-1.1
			c0-0.1,0.1-0.2,0.1-0.4V135.6z"/>
		<path class="st2" d="M635.8,134.4c0-0.7,0-1.4-0.1-2h1l0,1.2h0c0.3-0.9,1-1.4,1.8-1.4c0.1,0,0.2,0,0.3,0v1.1c-0.1,0-0.2,0-0.4,0
			c-0.8,0-1.4,0.6-1.5,1.5c0,0.2-0.1,0.4-0.1,0.5v3.4h-1.1V134.4z"/>
		<path class="st2" d="M640.8,132.5l1.4,3.7c0.1,0.4,0.3,0.9,0.4,1.3h0c0.1-0.4,0.2-0.9,0.4-1.3l1.3-3.7h1.2l-1.7,4.5
			c-0.8,2.2-1.4,3.3-2.2,4c-0.6,0.5-1.1,0.7-1.4,0.7l-0.3-1c0.3-0.1,0.7-0.3,1-0.6c0.3-0.2,0.7-0.7,1-1.3c0.1-0.1,0.1-0.2,0.1-0.3
			c0-0.1,0-0.2-0.1-0.3l-2.3-5.8H640.8z"/>
		<path class="st2" d="M646.2,138.8v-0.7l0.9-0.9c2.2-2.1,3.2-3.2,3.2-4.5c0-0.9-0.4-1.7-1.7-1.7c-0.8,0-1.4,0.4-1.8,0.7l-0.4-0.8
			c0.6-0.5,1.4-0.9,2.4-0.9c1.8,0,2.6,1.3,2.6,2.5c0,1.6-1.1,2.8-2.9,4.6l-0.7,0.6v0h3.8v0.9H646.2z"/>
		<path class="st2" d="M656.5,138.8v-2.3h-4v-0.8l3.8-5.4h1.2v5.3h1.2v0.9h-1.2v2.3H656.5z M656.5,135.6v-2.9c0-0.4,0-0.9,0-1.3l0,0
			c-0.3,0.5-0.5,0.9-0.7,1.3l-2.1,2.9v0H656.5z"/>
	</g>
</g>
<g>
</g>
<g>
</g>
<g>
</g>
<g>
</g>
<g>
</g>
<g>
</g>
<g>
</g>
<g>
</g>
<g>
</g>
<g>
</g>
<g>
</g>
<g>
</g>
<g>
</g>
<g>
</g>
<g>
</g>
</svg>
