<?xml version="1.0" encoding="utf-8"?>

<!DOCTYPE svg PUBLIC "-//W3C//DTD SVG 1.1//EN" "http://www.w3.org/Graphics/SVG/1.1/DTD/svg11.dtd">
<!-- Uploaded to: SVG Repo, www.svgrepo.com, Generator: SVG Repo Mixer Tools -->
<svg height="800px" width="800px" version="1.1" id="_x32_" xmlns="http://www.w3.org/2000/svg" xmlns:xlink="http://www.w3.org/1999/xlink" 
	 viewBox="0 0 512 512"  xml:space="preserve">
<style type="text/css">
	.st0{fill:#000000;}
</style>
<g>
	<path class="st0" d="M478.267,471.142h0.078l-25.5-136.956v-0.078c-3.685-17.27-18.871-29.661-36.54-29.661H95.695
		c-17.668,0-32.854,12.391-36.454,29.661v0.078L33.733,471.064v0.078c-0.476,2.241-0.718,4.474-0.718,6.793
		c0,7.761,2.639,15.35,7.676,21.51C47.17,507.363,56.844,512,67.079,512h94.256h189.252h94.341c10.228,0,19.988-4.637,26.382-12.555
		c5.036-6.16,7.675-13.749,7.675-21.51C478.985,475.702,478.743,473.384,478.267,471.142z M458.919,489.374
		c-3.443,4.154-8.557,6.636-13.991,6.636H331.317c-10.08-6.082-20.628-10.235-27.264-12.718c-8.878-3.272-21.83-13.031-21.83-19.028
		v-15.826c5.122-5.677,9.034-17.271,11.352-30.381c5.442-1.92,8.48-5.043,12.399-18.551c4.076-14.39-6.238-13.913-6.238-13.913
		c8.316-27.5-2.638-53.405-20.948-51.485c-12.633-22.15-55.006,5.036-68.278,3.194c0,7.597,3.201,13.273,3.201,13.273
		c-4.638,8.714-2.803,26.226-1.523,35.018c-0.796,0-10.071,0.078-6.152,13.913c3.912,13.508,6.956,16.631,12.391,18.551
		c2.319,13.11,6.238,24.704,11.352,30.381v15.826c0,5.996-13.75,16.232-21.83,19.028c-6.715,2.405-17.427,6.558-27.577,12.718
		H67.079c-5.441,0-10.556-2.482-13.991-6.636c-2.638-3.28-4.083-7.355-4.083-11.438c0-1.194,0.164-2.475,0.398-3.678v-0.077
		l25.508-136.8v-0.156c2.077-9.838,10.79-16.786,20.784-16.786h320.609c9.994,0,18.708,6.948,20.784,16.786l25.508,136.956v0.077
		c0.241,1.203,0.398,2.484,0.398,3.678C462.995,482.018,461.558,486.094,458.919,489.374z"/>
	<path class="st0" d="M301.359,154.679c0,4.903,2.045,8.572,2.045,8.572c-2.998,5.669-1.827,16.943-0.999,22.65
		c-0.476-0.007-6.488,0.055-3.927,8.987c2.483,8.729,4.466,10.728,7.972,11.969c1.491,8.488,4.006,15.959,7.324,19.652
		c0,4.42,0,7.652,0,10.228l-0.125,0.82l11.282,5.426v8.713h11.61v-8.721l11.266-5.418l-0.125-0.82c0-2.576,0-5.808,0-10.228
		c3.319-3.693,5.848-11.164,7.324-19.652c3.491-1.241,5.504-3.24,7.988-11.969c2.654-9.307-3.99-8.987-3.99-8.987
		c5.38-17.778-1.702-34.486-13.538-33.261C337.306,138.353,309.939,155.897,301.359,154.679z"/>
	<path class="st0" d="M338.016,276.652l-1.475-18.762h-11.61l-1.483,18.762l-18.903-29.091c-8.58,0-32.418,21.158-33.808,46.729
		h120.005c-1.398-25.571-25.227-46.729-33.815-46.729L338.016,276.652z"/>
	<path class="st0" d="M157.001,206.858c1.491,8.488,4.021,15.959,7.324,19.652c0,4.42,0,7.652,0,10.228l-0.125,0.82l11.282,5.418
		v8.721h11.611v-8.721l11.258-5.418l-0.117-0.82c0-2.576,0-5.808,0-10.228c3.326-3.693,5.832-11.164,7.332-19.652
		c3.49-1.241,5.496-3.24,7.98-11.969c2.67-9.307-3.974-8.987-3.974-8.987c5.364-17.778-1.718-34.486-13.562-33.261
		c-8.151-14.288-35.518,3.256-44.083,2.038c0,4.903,2.038,8.572,2.038,8.572c-2.99,5.669-1.835,16.943-0.991,22.65
		c-0.492-0.007-6.504,0.055-3.943,8.987C151.513,203.618,153.512,205.617,157.001,206.858z"/>
	<path class="st0" d="M207.479,247.56l-18.903,29.091l-1.483-18.762h-11.611l-1.475,18.762l-18.911-29.091
		c-8.58,0-32.418,21.158-33.807,46.729h119.997C239.881,268.719,216.075,247.56,207.479,247.56z"/>
	<path class="st0" d="M212.991,117.436l-12.148,30.349l8.768-1.086c30.302-3.787,59.315-15.132,73.096-21.089
		c13.094-4.669,24.384-12.664,32.526-23.032c8.183-10.447,13.156-23.432,13.149-37.462c0.007-9.182-2.116-17.95-5.888-25.812
		c-5.66-11.813-14.96-21.612-26.46-28.482C284.525,3.966,270.776,0.015,256.004,0c-19.652,0.015-37.555,7.027-50.719,18.637
		c-6.582,5.809-11.986,12.789-15.741,20.667c-3.771,7.862-5.895,16.631-5.895,25.812c0,11.696,3.459,22.705,9.37,32.082
		C198.078,105.217,204.918,112.072,212.991,117.436z M198.445,44.621c4.56-9.54,12.328-17.888,22.306-23.837
		c9.987-5.957,22.136-9.494,35.252-9.494c17.52,0,33.276,6.293,44.481,16.193c5.598,4.95,10.064,10.774,13.094,17.138
		c3.044,6.371,4.7,13.25,4.7,20.496c0,11.032-3.834,21.3-10.658,30.029c-6.809,8.705-16.631,15.74-28.264,19.831l-0.156,0.047
		l-0.156,0.07c-11.923,5.177-36.041,14.576-61.674,19.036l8.69-21.675l-4.271-2.444c-8.604-4.919-15.654-11.618-20.503-19.309
		c-4.857-7.706-7.527-16.365-7.535-25.586C193.753,57.871,195.4,50.992,198.445,44.621z"/>
	<path class="st0" d="M227.475,75.477c4.333,0,7.862-3.927,7.862-8.776c0-4.833-3.529-8.768-7.862-8.768
		c-4.341,0-7.855,3.935-7.855,8.768C219.619,71.55,223.133,75.477,227.475,75.477z"/>
	<path class="st0" d="M257.784,75.477c4.34,0,7.862-3.927,7.862-8.776c0-4.833-3.522-8.768-7.862-8.768
		c-4.342,0-7.862,3.935-7.862,8.768C249.922,71.55,253.443,75.477,257.784,75.477z"/>
	<path class="st0" d="M288.094,75.477c4.341,0,7.862-3.927,7.862-8.776c0-4.833-3.521-8.768-7.862-8.768
		c-4.342,0-7.862,3.935-7.862,8.768C280.231,71.55,283.752,75.477,288.094,75.477z"/>
</g>
</svg>